<svg width="12" height="14" viewBox="0 0 12 14" fill="none" xmlns="http://www.w3.org/2000/svg">
<g id="Layer_1" clip-path="url(#clip0_203_47)">
<path id="Vector" d="M10.7589 8.29948L6 6.99878L9.36502 11.0885C9.36502 11.0885 9.7855 11.4936 10.386 11.4817C10.9865 11.4698 11.3513 11.2192 11.5116 11.0719C11.8937 10.7203 12.1284 10.1787 11.9239 9.33053C11.7195 8.4824 10.7589 8.29829 10.7589 8.29829V8.29948Z" fill="black"/>
<path id="Vector_2" d="M11.9239 4.66701C12.1284 3.81888 11.8937 3.27722 11.5116 2.92562C11.3524 2.77951 10.9877 2.52888 10.386 2.51581C9.78434 2.50275 9.36502 2.90899 9.36502 2.90899L6 6.99876L10.7589 5.69806C10.7589 5.69806 11.7206 5.51394 11.9239 4.66582V4.66701Z" fill="black"/>
<path id="Vector_3" d="M7.52113 1.88576C7.52113 1.88576 7.62451 1.30371 7.28766 0.795312C6.95081 0.286913 6.54659 0.109923 6.33867 0.0529062C5.84268 -0.0836965 5.27004 0.0101436 4.68578 0.646831C4.10152 1.28352 4.47438 2.20885 4.47438 2.20885L5.99949 6.99826L2.63448 2.90969C2.63448 2.90969 2.21399 2.50463 1.61347 2.51651C1.01295 2.52839 0.648221 2.77902 0.487927 2.92632C0.105776 3.27792 -0.128858 3.81958 0.0755754 4.6677C0.280009 5.51583 1.24061 5.69995 1.24061 5.69995L5.99949 7.00064L7.51997 1.88695L7.52113 1.88576Z" fill="black"/>
<path id="Vector_4" d="M5.99949 7L1.24061 8.3007C1.24061 8.3007 0.280009 8.48481 0.0755754 9.33294C-0.128858 10.1811 0.105776 10.7227 0.487927 11.0743C0.647059 11.2204 1.01179 11.4711 1.61347 11.4841C2.21399 11.496 2.63448 11.091 2.63448 11.091L5.99949 7.00119L4.47438 11.7906C4.47438 11.7906 4.10152 12.7159 4.68578 13.3526C5.27004 13.9893 5.84152 14.0831 6.33867 13.9465C6.54542 13.8895 6.94964 13.7125 7.28766 13.2041C7.62451 12.6957 7.52113 12.1137 7.52113 12.1137L6.00066 7H5.99949Z" fill="black"/>
</g>
<defs>
<clipPath id="clip0_203_47">
<rect width="12" height="14" fill="white"/>
</clipPath>
</defs>
</svg>
