<svg width="128" height="128" viewBox="0 0 128 128" fill="none" xmlns="http://www.w3.org/2000/svg">
<path d="M90.1949 84.5115C103.398 85.245 104.551 73.197 90.3794 72.7298C90.2796 72.7265 90.1949 72.6448 90.1949 72.545V72.545C90.1949 72.4414 90.2863 72.3585 90.3898 72.3603C104.171 72.6009 101.951 59.4641 95.3517 59.4641H72.4919C71.7915 59.4641 71.3074 58.7612 71.5272 58.0961C76.3565 43.4816 69.2639 29.7131 59.949 33.3752C59.5339 33.5385 59.3071 33.9892 59.3797 34.4293C62.1624 51.3013 59.9575 59.6095 47.3732 69.5614C47.1978 69.7001 46.9767 69.7778 46.7532 69.7778H44.0574C43.5009 69.7778 43.0514 70.2323 43.0575 70.7888L43.4039 102.308C43.4099 102.856 43.8558 103.297 44.4038 103.297H46.7228C46.9648 103.297 47.199 103.386 47.3827 103.544C50.8318 106.504 53.0115 107.339 57.0436 107.717H89.8265C97.1935 108.454 100.509 97.772 90.1949 97.0899M90.5632 84.5288C101.245 84.5115 102.719 97.4036 89.8265 97.0353" stroke="#494A4A" stroke-width="3" stroke-linecap="round"/>
<rect x="24.9971" y="64.252" width="18.4174" height="44.2017" rx="4" fill="#494A4A"/>
<path d="M44.5195 18.9453L51.8865 26.6806" stroke="#CC0404" stroke-width="3" stroke-linecap="round"/>
<path d="M60.3584 13.4199L61.0951 23.3653" stroke="#CC0404" stroke-width="3" stroke-linecap="round"/>
<path d="M73.6191 24.8376L78.776 15.6289" stroke="#CC0404" stroke-width="3" stroke-linecap="round"/>
</svg>
