<svg width="148" height="123" viewBox="0 0 148 123" fill="none" xmlns="http://www.w3.org/2000/svg">
<rect width="148" height="123" fill="white"/>
<g filter="url(#filter0_d_1312_27759)">
<ellipse cx="74" cy="51" rx="31" ry="30" fill="#034694"/>
</g>
<mask id="mask0_1312_27759" style="mask-type:alpha" maskUnits="userSpaceOnUse" x="54" y="32" width="39" height="39">
<rect x="54" y="32" width="39" height="39" fill="#D9D9D9"/>
</mask>
<g mask="url(#mask0_1312_27759)">
<path d="M63.5364 60.8604C61.9926 59.4325 60.7942 57.7679 59.9411 55.8663C59.0879 53.9646 58.6614 51.9677 58.6614 49.8758C58.6614 45.7513 60.1036 42.2453 62.9879 39.358C65.8723 36.4709 69.3749 35.0273 73.4956 35.0273C76.9292 35.0273 79.9723 36.0405 82.6248 38.0669C85.2771 40.093 87.0057 42.7266 87.8106 45.9677L90.0548 54.8824C90.1761 55.3198 90.0989 55.7137 89.8232 56.0642C89.5478 56.4144 89.1804 56.5895 88.721 56.5895H85.0985V61.9467C85.0985 62.7145 84.8282 63.3677 84.2876 63.9064C83.747 64.4451 83.0915 64.7145 82.321 64.7145H78.5985V66.5808C78.5985 66.9713 78.463 67.2996 78.1918 67.5655C77.9207 67.8315 77.5891 67.9645 77.1969 67.9645C76.8048 67.9645 76.4775 67.8315 76.215 67.5655C75.9523 67.2996 75.821 66.9713 75.821 66.5808V63.3308C75.821 62.94 75.954 62.6116 76.2199 62.3456C76.4859 62.0797 76.8143 61.9467 77.2051 61.9467H82.321V55.2058C82.321 54.815 82.454 54.4866 82.7199 54.2206C82.9859 53.9547 83.3143 53.8217 83.7051 53.8217H86.923L85.1338 46.655C84.4838 44.0602 83.0717 41.9364 80.8975 40.2838C78.723 38.6312 76.2586 37.8049 73.5045 37.8049C70.15 37.8049 67.2988 38.9659 64.9509 41.2881C62.6031 43.6105 61.4292 46.4404 61.4292 49.7779C61.4292 51.5009 61.7823 53.1428 62.4887 54.7037C63.1953 56.2645 64.1968 57.6459 65.4933 58.8478L66.3042 59.6213V66.5808C66.3042 66.9713 66.1705 67.2996 65.9032 67.5655C65.6359 67.8315 65.3059 67.9645 64.9132 67.9645C64.5205 67.9645 64.1927 67.8315 63.93 67.5655C63.6676 67.2996 63.5364 66.9713 63.5364 66.5808V60.8604ZM73.4273 58.234C73.9167 58.234 74.322 58.0712 74.6433 57.7457C74.9645 57.4204 75.1251 57.0173 75.1251 56.5363C75.1251 56.055 74.9612 55.6517 74.6335 55.3264C74.3058 55.0009 73.9031 54.8381 73.4253 54.8381C72.9476 54.8381 72.5455 55.0014 72.2192 55.3281C71.8925 55.6544 71.7292 56.0565 71.7292 56.5342C71.7292 57.012 71.891 57.4147 72.2147 57.7424C72.5383 58.0701 72.9426 58.234 73.4273 58.234ZM73.55 44.2123C74.1269 44.2123 74.6041 44.3687 74.9817 44.6815C75.3592 44.994 75.548 45.3946 75.548 45.8832C75.548 46.3024 75.4349 46.7035 75.2088 47.0865C74.9823 47.4697 74.5429 48.0003 73.8905 48.6782C73.3694 49.2393 72.9885 49.7379 72.7477 50.174C72.5072 50.61 72.3435 51.1046 72.2565 51.6576C72.2029 52.0007 72.2977 52.3014 72.5409 52.5595C72.7841 52.8176 73.0958 52.9466 73.4761 52.9466C73.7905 52.9466 74.0814 52.8386 74.3487 52.6224C74.616 52.4063 74.7952 52.1092 74.8862 51.7311C74.9707 51.4061 75.1042 51.0879 75.2868 50.7764C75.4693 50.465 75.7566 50.0998 76.1488 49.6808C76.983 48.7716 77.5355 48.068 77.8063 47.5699C78.0771 47.0716 78.2126 46.5092 78.2126 45.8828C78.2126 44.7236 77.7647 43.7451 76.8691 42.9472C75.9734 42.1496 74.8684 41.7508 73.5541 41.7508C72.7286 41.7508 71.9483 41.9371 71.2133 42.3098C70.4782 42.6824 69.874 43.2073 69.4006 43.8844C69.1579 44.2148 69.0875 44.5706 69.1893 44.9516C69.2912 45.333 69.5141 45.6011 69.858 45.756C70.1825 45.8979 70.4933 45.9182 70.7904 45.8169C71.0878 45.7156 71.3578 45.5063 71.6004 45.1889C71.8569 44.8793 72.1547 44.6392 72.4938 44.4686C72.8329 44.2977 73.185 44.2123 73.55 44.2123Z" fill="white"/>
</g>
<defs>
<filter id="filter0_d_1312_27759" x="17" y="1" width="122" height="120" filterUnits="userSpaceOnUse" color-interpolation-filters="sRGB">
<feFlood flood-opacity="0" result="BackgroundImageFix"/>
<feColorMatrix in="SourceAlpha" type="matrix" values="0 0 0 0 0 0 0 0 0 0 0 0 0 0 0 0 0 0 127 0" result="hardAlpha"/>
<feOffset dx="4" dy="10"/>
<feGaussianBlur stdDeviation="15"/>
<feComposite in2="hardAlpha" operator="out"/>
<feColorMatrix type="matrix" values="0 0 0 0 0.262745 0 0 0 0 0.380392 0 0 0 0 0.933333 0 0 0 0.4 0"/>
<feBlend mode="normal" in2="BackgroundImageFix" result="effect1_dropShadow_1312_27759"/>
<feBlend mode="normal" in="SourceGraphic" in2="effect1_dropShadow_1312_27759" result="shape"/>
</filter>
</defs>
</svg>
