<svg width="76" height="118" viewBox="0 0 76 118" fill="none" xmlns="http://www.w3.org/2000/svg">
<path d="M38.6403 116.412C38.4586 114.949 38.7933 112.956 39.0012 111.758C39.3286 109.865 39.9596 108.038 40.7531 106.298C43.0643 101.236 46.506 96.2704 49.7231 91.782C53.1409 87.0165 55.8489 81.7376 57.7586 76.1814C58.9345 72.7586 59.8092 69.2272 60.3566 65.6452C60.6816 63.5216 61.2481 60.7158 60.9923 58.5825C60.8346 57.2712 59.6706 56.4179 58.466 57.2013C58.0717 57.4569 57.7705 57.8329 57.498 58.2162C56.3866 59.7757 55.8584 61.4775 54.6825 63.0154C53.3871 64.7124 52.2661 66.5419 51.3316 68.4631C50.5907 69.9841 49.9693 71.563 49.4721 73.1828C49.0109 74.6845 48.8937 76.3791 48.301 77.823C47.1155 80.7131 46.671 83.9335 46.0017 86.9973C45.5859 88.8967 45.1724 90.7962 44.6944 92.6812C44.4793 93.5321 44.4601 94.2239 43.6618 94.6626C42.9496 95.0555 42.1226 95.1181 41.3578 94.8482C39.7947 94.2962 38.7359 92.5775 38.4132 91.2156C38.2172 90.3912 37.8946 89.6247 37.5504 88.8123C37.2254 88.0458 36.8907 87.2528 36.6422 86.3585C36.5466 86.0234 36.4438 85.6932 36.3315 85.3654C36.0829 85.4594 35.8248 85.5486 35.5571 85.6377C27.8252 88.2001 19.142 87.0503 12.3279 82.562C8.69495 80.1684 5.6715 76.8684 3.5491 73.0526C2.41859 71.023 -1.65172 63.5626 0.740757 61.5426C1.79956 60.6483 4.39997 61.9018 5.60696 62.2127C7.67916 62.7478 9.7442 63.3071 11.7877 63.9362C15.9034 65.2017 19.9522 66.742 23.7286 68.8415C30.4973 72.6019 35.0289 77.0781 37.4883 82.4559C38.461 81.9039 39.202 81.2724 39.7541 80.5348C41.8454 77.741 41.0495 73.7517 40.2799 69.8949C40.1436 69.2127 40.0026 68.5065 39.8831 67.8243C39.1374 63.6084 39.2115 59.2527 40.06 55.0584C40.483 52.9637 41.0997 50.91 41.898 48.9286C42.1418 48.326 42.8181 47.3545 42.137 46.8266C41.6637 46.4578 40.3133 46.5446 39.7039 46.359C38.0595 45.8552 36.549 44.8934 35.4185 43.5846C34.5509 42.5794 33.9175 41.4055 33.2459 40.2653C32.6746 39.2939 31.9983 38.4478 31.6373 37.3848C30.7697 34.8273 30.2439 32.2891 29.8424 29.6183C29.6631 28.4275 29.4791 27.1981 29.2377 26.0194C28.8075 23.9078 28.0761 21.977 27.0197 20.1089C26.556 19.2894 26.2764 18.7301 25.447 18.2794C24.7826 17.9178 23.9724 17.8865 23.4728 17.238C22.8514 16.4281 23.2888 15.153 24.1301 14.5817C24.9714 14.0104 26.0565 13.9743 27.0699 14.0442C28.6689 14.155 30.2344 14.008 31.8118 14.3238C33.2889 14.6203 34.6823 15.3482 36.102 15.6471C36.6709 12.6509 37.0628 10.0042 38.7885 7.37196C40.4544 4.83373 42.0414 2.81375 44.5629 1.26381C45.4448 0.721454 46.6208 0.104372 47.7393 0.00795242C49.128 -0.110161 50.2704 1.10713 50.9277 2.34853C52.553 5.41947 54.4746 7.48043 55.0888 11.0624C55.1271 11.289 55.1653 11.518 55.1988 11.7446C59.0157 6.87781 63.9273 3.15363 69.4269 0.962501C70.3997 0.574415 72.8424 -0.242737 74.4867 0.55272C75.1488 0.873314 75.6125 1.41326 75.8276 2.11471C76.3534 3.82374 75.5671 4.90845 74.9361 5.77863C74.7353 6.05584 74.5298 6.34028 74.3577 6.64641C73.894 7.4732 73.2654 8.34579 72.6559 9.19187C72.0799 9.99215 71.535 10.7466 71.1526 11.424L71.1382 11.4481C69.403 14.3431 68.1554 17.4502 66.946 20.4536C65.7056 23.5366 64.4245 26.7233 62.6032 29.7653C60.2514 33.6895 57.2447 37.7199 52.7681 37.8669C49.171 37.9898 45.6958 35.3913 43.473 30.932C42.8468 29.6737 42.3282 28.3576 41.8263 27.0848C40.9682 24.9082 40.1604 22.852 38.8602 21.0924C37.646 19.446 35.9706 18.1781 34.1159 17.3489C32.8419 16.7776 29.7755 15.5459 28.4322 15.9147C25.6335 16.686 28.9796 19.2894 29.8352 20.3524C31.6684 22.623 32.3353 25.5156 32.7009 28.3624C33.1455 31.8262 33.4562 35.6878 34.9046 38.9034C36.353 42.119 40.538 44.3077 43.7168 45.1104C44.1566 44.3222 44.6274 43.5508 45.1294 42.8012C46.169 41.2488 47.6413 39.3807 49.8307 38.7082C51.138 38.3056 52.6796 38.5129 53.8532 39.2481C54.5391 39.6772 55.1199 40.3642 55.3278 41.162C55.5501 42.0081 55.2131 42.6758 54.7949 43.3941C53.9631 44.8163 52.7059 45.9806 51.2312 46.6941C50.2895 47.1497 49.3216 47.3883 48.2771 47.4124C47.2326 47.4365 46.1667 47.3786 45.2369 47.909C44.6322 48.2537 44.1757 48.8249 43.8554 49.4468C42.6819 51.7223 42.0748 54.2654 41.8573 56.8108C41.6374 59.3876 41.3889 61.7885 42.0199 64.3388C42.8038 67.511 42.6891 70.5457 42.8875 73.7589C42.9568 74.8942 43.3105 75.8536 43.234 77.0299C43.1432 78.4401 42.8086 79.855 42.0055 81.0361C41.2335 82.1691 39.3836 82.8488 38.8434 83.9962C38.0595 85.6618 40.3062 89.0462 41.0758 90.4081C41.5299 91.2132 42.1728 93.1464 43.0404 91.6639C43.6164 90.6805 43.5471 89.3523 43.5591 88.2555C43.5782 86.3295 43.7742 84.3795 44.0395 82.4728C44.5629 78.7028 45.5572 75.0172 46.9912 71.4955C48.4062 68.022 50.1677 64.6931 52.2422 61.5739C53.3106 59.9662 54.5511 58.5102 55.6792 56.9531C56.6089 55.6683 57.314 54.2557 59.152 54.1907C60.3566 54.1497 61.4536 54.9885 62.075 56.0274C63.8676 59.0285 62.7514 62.9552 62.1754 66.178C60.9326 73.1153 58.705 79.8695 55.586 86.1777C54.1424 89.0944 52.5697 92.5847 50.3182 94.935C47.9042 97.4539 45.8775 100.296 44.2307 103.398C42.67 106.339 41.0423 109.581 40.1891 112.811C40.0767 113.238 39.3334 118.01 39.4529 117.996C38.7478 118.078 38.6881 116.882 38.6283 116.405L38.6403 116.412ZM3.5252 64.7076C2.11983 66.2286 5.25323 71.7365 6.23795 73.284C8.10938 76.2248 10.6214 78.9101 13.5373 80.8216C16.4532 82.7331 20.5259 83.0634 23.8815 83.4707C26.0876 83.7383 28.3127 83.8805 30.5331 83.7937C31.6397 83.7503 32.7559 83.666 33.8482 83.4828C34.9404 83.2996 35.1125 83.3406 34.8807 82.251C34.2139 79.1029 30.8892 76.5334 28.4777 74.7665C24.871 72.1222 20.6477 70.0661 16.5488 68.3329C14.1013 67.2988 11.5989 66.3997 9.05346 65.6452C7.91578 65.3078 4.53382 63.6253 3.5252 64.7076ZM45.9898 45.5009C47.3999 45.6262 48.822 45.537 50.1963 45.2068C51.7188 44.8404 53.7528 43.6569 53.5114 42.172C53.4229 41.6345 53.0358 41.2898 52.725 41.0945C52.0725 40.6848 51.1858 40.5642 50.464 40.786C48.9224 41.2584 47.7584 42.7602 46.9195 44.016C46.5945 44.5005 46.2838 44.9947 45.9874 45.4985L45.9898 45.5009ZM38.7741 16.2642C38.7741 16.2642 38.798 16.2763 38.8076 16.2811C41.8621 17.7274 43.1814 22.652 43.9773 25.5928C44.3335 26.9113 44.4099 28.3142 44.9429 29.5845C45.4449 30.7777 46.5228 31.7756 47.2518 32.8555C47.8469 33.7402 48.497 34.62 49.3837 35.2033C52.5434 37.2836 55.8106 34.3645 57.7609 31.9829C59.0181 30.4475 60.7629 28.8541 61.8265 27.2295C63.2223 25.0938 63.8222 21.9433 64.7926 19.5642C66.7835 14.6829 69.0995 9.7969 71.6784 5.29654C72.1086 4.54688 72.4241 2.98489 73.2582 2.37986C71.0594 2.54618 65.8227 5.00487 63.3322 6.84889C60.3159 9.0834 57.6845 11.8434 55.5645 14.9529C55.8919 19.6196 55.3876 24.3538 54.0754 28.8373C53.7265 30.0304 52.9186 31.496 51.7069 32.036C51.0185 32.3421 50.2895 32.3228 49.5988 31.9805C47.5672 30.9778 48.0118 28.6251 48.1719 26.7667C48.3751 24.4164 48.9559 22.1 49.8737 19.9305C50.4903 18.4746 51.2575 17.0814 52.1658 15.7893C52.5482 15.247 53.2174 14.6612 53.3321 14.0442C53.4684 13.3066 53.1051 12.176 52.9784 11.4384C52.6127 9.31239 51.9626 7.01521 50.4927 5.38091C48.7814 3.47663 46.4343 1.26622 43.6595 4.70597C42.6485 5.95942 41.2025 6.79345 40.4376 8.21322C39.7039 9.57031 39.0323 11.1709 38.7287 12.6871C38.5017 13.8128 37.591 15.6592 38.7789 16.2642H38.7741ZM53.5018 18.3975C51.7499 21.7649 50.5764 25.4216 50.1294 29.1723C50.0864 29.5363 50.2561 29.8906 50.5405 30.0304C50.6743 30.0955 50.7484 30.0859 50.8369 30.0473C51.2527 29.8617 51.7571 29.0783 52.008 28.2202C52.9401 25.0359 53.4397 21.7191 53.4994 18.3951L53.5018 18.3975Z" fill="black"/>
</svg>
