<svg width="93" height="93" viewBox="0 0 93 93" fill="none" xmlns="http://www.w3.org/2000/svg">
<path d="M45.2639 47.1168L61.0243 31.6654M61.0243 31.6654L70.9132 33.2105L85.4012 18.7226C86.0124 18.1113 85.6126 17.0649 84.7495 17.017L75.8577 16.523V8.15352C75.8577 7.2581 74.7712 6.814 74.144 7.45305L59.4792 22.3945L61.0243 31.6654Z" stroke="#CC0404" stroke-width="4" stroke-linecap="round"/>
<path d="M89.2933 34.0697C91.997 43.4829 91.477 53.5212 87.8148 62.6092C84.1526 71.6972 77.5555 79.3205 69.0589 84.2828C60.5622 89.245 50.6469 91.2654 40.8691 90.0267C31.0912 88.7881 22.0042 84.3606 15.0341 77.439C8.06399 70.5175 3.60533 61.4937 2.35782 51.7837C1.11032 42.0738 3.14457 32.2273 8.14136 23.7896C13.1381 15.3519 20.8146 8.80044 29.9661 5.16348C39.1175 1.52652 49.226 1.00988 58.7051 3.69463" stroke="#494A4A" stroke-width="4" stroke-linecap="round"/>
<path d="M75.0407 37.9148C76.8244 44.1025 76.4814 50.7011 74.0653 56.675C71.6493 62.6489 67.2971 67.66 61.6916 70.922C56.0862 74.1839 49.5449 75.5119 43.0942 74.6977C36.6435 73.8835 30.6486 70.9731 26.0503 66.4233C21.452 61.8735 18.5105 55.9417 17.6875 49.559C16.8645 43.1762 18.2065 36.7037 21.503 31.1572C24.7995 25.6107 29.8638 21.3042 35.9013 18.9135C41.9387 16.5227 48.6075 16.1831 54.861 17.9479" stroke="#494A4A" stroke-width="4" stroke-linecap="round"/>
<path d="M61.9649 41.6429C62.9225 44.9342 62.7383 48.4441 61.4413 51.6217C60.1443 54.7993 57.8078 57.4648 54.7986 59.1999C51.7894 60.9349 48.2777 61.6413 44.8147 61.2083C41.3517 60.7752 38.1334 59.2271 35.6648 56.807C33.1962 54.3869 31.6171 51.2317 31.1753 47.8366C30.7335 44.4415 31.454 40.9987 33.2236 38.0484C34.9933 35.0982 37.7121 32.8075 40.9532 31.5358C44.1944 30.2641 47.7745 30.0835 51.1316 31.0222" stroke="#494A4A" stroke-width="4" stroke-linecap="round"/>
</svg>
