<svg width="148" height="123" viewBox="0 0 148 123" fill="none" xmlns="http://www.w3.org/2000/svg">
<rect width="148" height="123" fill="white"/>
<g filter="url(#filter0_d_1312_27772)">
<ellipse cx="74" cy="51" rx="31" ry="30" fill="#034694"/>
</g>
<rect x="69.5" y="35.5" width="9.5" height="9" rx="1.5" stroke="white" stroke-width="3"/>
<rect x="59.5" y="58.5" width="9.5" height="9" rx="1.5" stroke="white" stroke-width="3"/>
<rect x="79.25" y="58.5" width="9.5" height="9" rx="1.5" stroke="white" stroke-width="3"/>
<path d="M59 50.25C58.3096 50.25 57.75 50.8096 57.75 51.5C57.75 52.1904 58.3096 52.75 59 52.75V50.25ZM90 52.75C90.6904 52.75 91.25 52.1904 91.25 51.5C91.25 50.8096 90.6904 50.25 90 50.25V52.75ZM73.25 46V51.5H75.75V46H73.25ZM74.5 50.25H59V52.75H74.5V50.25ZM74.5 52.75H90V50.25H74.5V52.75Z" fill="white"/>
<path d="M64.5 52V57.5" stroke="white" stroke-width="2.5"/>
<path d="M84 52V57.5" stroke="white" stroke-width="2.5"/>
<defs>
<filter id="filter0_d_1312_27772" x="17" y="1" width="122" height="120" filterUnits="userSpaceOnUse" color-interpolation-filters="sRGB">
<feFlood flood-opacity="0" result="BackgroundImageFix"/>
<feColorMatrix in="SourceAlpha" type="matrix" values="0 0 0 0 0 0 0 0 0 0 0 0 0 0 0 0 0 0 127 0" result="hardAlpha"/>
<feOffset dx="4" dy="10"/>
<feGaussianBlur stdDeviation="15"/>
<feComposite in2="hardAlpha" operator="out"/>
<feColorMatrix type="matrix" values="0 0 0 0 0.262745 0 0 0 0 0.380392 0 0 0 0 0.933333 0 0 0 0.4 0"/>
<feBlend mode="normal" in2="BackgroundImageFix" result="effect1_dropShadow_1312_27772"/>
<feBlend mode="normal" in="SourceGraphic" in2="effect1_dropShadow_1312_27772" result="shape"/>
</filter>
</defs>
</svg>
