<svg width="148" height="123" viewBox="0 0 148 123" fill="none" xmlns="http://www.w3.org/2000/svg">
<rect width="148" height="123" fill="white"/>
<g filter="url(#filter0_d_1312_27756)">
<ellipse cx="74" cy="51" rx="31" ry="30" fill="#034694"/>
</g>
<mask id="mask0_1312_27756" style="mask-type:alpha" maskUnits="userSpaceOnUse" x="53" y="32" width="42" height="42">
<rect x="53" y="32" width="42" height="42" fill="#D9D9D9"/>
</mask>
<g mask="url(#mask0_1312_27756)">
<path d="M73.9998 55.7145C72.036 55.7145 70.2543 56.2661 68.6548 57.3695C67.0556 58.4732 65.8817 59.934 65.1329 61.752H82.8666C82.1374 59.9145 80.9683 58.4488 79.3591 57.3551C77.75 56.2613 75.9635 55.7145 73.9998 55.7145ZM73.9998 70.502C71.5789 70.502 69.3039 70.0426 67.1748 69.1238C65.0456 68.2051 63.1935 66.9582 61.6185 65.3832C60.0435 63.8082 58.7966 61.9561 57.8779 59.827C56.9591 57.6978 56.4998 55.4228 56.4998 53.002C56.4998 50.5811 56.9591 48.3061 57.8779 46.177C58.7966 44.0478 60.0435 42.1957 61.6185 40.6207C63.1935 39.0457 65.0456 37.7988 67.1748 36.8801C69.3039 35.9613 71.5789 35.502 73.9998 35.502C76.4206 35.502 78.6956 35.9613 80.8248 36.8801C82.9539 37.7988 84.806 39.0457 86.381 40.6207C87.956 42.1957 89.2029 44.0478 90.1216 46.177C91.0404 48.3061 91.4998 50.5811 91.4998 53.002C91.4998 55.4228 91.0404 57.6978 90.1216 59.827C89.2029 61.9561 87.956 63.8082 86.381 65.3832C84.806 66.9582 82.9539 68.2051 80.8248 69.1238C78.6956 70.0426 76.4206 70.502 73.9998 70.502ZM73.9998 67.5851C78.0635 67.5851 81.51 66.1706 84.3392 63.3414C87.1684 60.5122 88.5829 57.0657 88.5829 53.002C88.5829 48.9382 87.1684 45.4917 84.3392 42.6625C81.51 39.8333 78.0635 38.4188 73.9998 38.4188C69.936 38.4188 66.4895 39.8333 63.6603 42.6625C60.8312 45.4917 59.4166 48.9382 59.4166 53.002C59.4166 57.0657 60.8312 60.5122 63.6603 63.3414C66.4895 66.1706 69.936 67.5851 73.9998 67.5851Z" fill="white"/>
</g>
<path d="M80.7854 41.9621L80.8208 41.4633L80.3221 41.4279L77.4591 41.2247C77.272 41.2114 77.142 41.1355 77.0318 40.9501L77.0317 40.9498C76.9807 40.8643 76.9716 40.8034 76.9748 40.757C76.9781 40.7074 76.9988 40.6314 77.0751 40.5244L77.0814 40.5156L77.0874 40.5064L85.15 28.0966L84.4688 37.695L84.4334 38.1937L84.9321 38.2291L87.8088 38.4333C87.9886 38.4461 88.1154 38.5193 88.2245 38.705C88.2747 38.7904 88.2837 38.8516 88.2804 38.8986C88.2768 38.9489 88.2557 39.0254 88.1792 39.1324L88.1728 39.1414L88.1668 39.1506L80.1041 51.561L80.7854 41.9621Z" fill="white" stroke="#1C458F"/>
<defs>
<filter id="filter0_d_1312_27756" x="17" y="1" width="122" height="120" filterUnits="userSpaceOnUse" color-interpolation-filters="sRGB">
<feFlood flood-opacity="0" result="BackgroundImageFix"/>
<feColorMatrix in="SourceAlpha" type="matrix" values="0 0 0 0 0 0 0 0 0 0 0 0 0 0 0 0 0 0 127 0" result="hardAlpha"/>
<feOffset dx="4" dy="10"/>
<feGaussianBlur stdDeviation="15"/>
<feComposite in2="hardAlpha" operator="out"/>
<feColorMatrix type="matrix" values="0 0 0 0 0.262745 0 0 0 0 0.380392 0 0 0 0 0.933333 0 0 0 0.4 0"/>
<feBlend mode="normal" in2="BackgroundImageFix" result="effect1_dropShadow_1312_27756"/>
<feBlend mode="normal" in="SourceGraphic" in2="effect1_dropShadow_1312_27756" result="shape"/>
</filter>
</defs>
</svg>
