<svg width="128" height="128" viewBox="0 0 128 128" fill="none" xmlns="http://www.w3.org/2000/svg">
<circle cx="64" cy="64" r="46.5" stroke="#494A4A" stroke-width="3"/>
<path d="M104.371 63.9998C104.371 73.8353 100.78 83.3325 94.2732 90.7079C87.7663 98.0834 78.7908 102.83 69.032 104.056C59.2732 105.282 49.4025 102.903 41.2735 97.3663C33.1445 91.8295 27.3163 83.5156 24.8834 73.9857C22.4506 64.4559 23.5804 54.3657 28.0607 45.6099C32.541 36.8541 40.0636 30.0351 49.2158 26.4333C58.3681 22.8315 68.5205 22.6947 77.7664 26.0487C87.0124 29.4026 94.7159 36.0166 99.4305 44.6485" stroke="#494A4A" stroke-width="3" stroke-linecap="round"/>
<path d="M74.8069 52.8732C73.2405 49.7397 69.3769 48.0101 65.589 47.8846C60.9224 47.7299 56.3706 50.0098 56.3706 55.0982C56.3706 64.317 74.8069 60.1836 75.1252 71.3092C74.8069 80.5276 61.7745 85.2957 54.1455 74.1701M65.589 42.3828V46.1973" stroke="#CC0404" stroke-width="4" stroke-linecap="round"/>
<path d="M65.5894 80.8477V85.9333" stroke="#CC0404" stroke-width="4" stroke-linecap="round"/>
</svg>
