<svg width="120" height="169" viewBox="0 0 120 169" fill="none" xmlns="http://www.w3.org/2000/svg">
<g clip-path="url(#clip0_447_597)">
<path d="M143.454 145.584C129.073 131.527 100.973 102.81 89.2522 82.1041C89.2031 82.0063 89.2199 81.8814 89.3148 81.8151C89.9891 81.2974 92.805 78.9644 95.1738 73.7926C97.8361 68.001 88.8833 44.5146 91.8702 39.638C91.9698 39.4836 91.3326 39.2962 91.1398 39.2892C90.2835 39.2736 87.837 39.349 86.3857 42.9182C85.7946 44.3684 85.78 44.388 85.8161 45.9571C85.8161 45.9571 78.4043 38.7246 73.3422 42.993C73.3422 42.993 71.4987 43.2607 70.4503 44.3225C69.4456 45.3255 68.0635 47.4503 67.7212 49.774C67.7069 49.916 67.5633 50.0068 67.4313 49.9385C65.9489 49.3317 58.389 46.7211 56.259 57.0183C56.2398 57.1261 56.1619 57.1899 56.0595 57.2047C55.4059 57.2647 53.7929 57.0791 53.756 59.5858C53.756 59.5858 50.4922 60.5145 52.5803 63.9721C52.5803 63.9721 49.3488 65.1235 51.1417 68.589C51.1417 68.589 50.8416 68.5626 49.6709 68.6626C47.4175 68.8674 46.3694 70.0516 46.1464 70.5563C45.6495 71.6955 49.1394 71.3636 51.451 72.7597C57.7409 76.5867 64.3302 91.4778 85.3487 85.4696C85.4682 85.4523 85.5682 85.4203 85.6514 85.5131L119.198 127.731C119.347 127.919 119.143 128.194 118.918 128.086C113.605 125.587 86.2062 112.86 77.2855 113.001C77.0415 113.001 76.9668 113.327 77.177 113.454L92.6662 121.7C93.8169 122.303 97.5671 125.204 98.4553 126.16C107.076 135.473 109.107 140.339 120.136 144.159C124.119 145.54 128.711 148.355 132.949 151.377C136.811 150.607 140.461 148.852 143.418 145.572L143.454 145.584Z" fill="black"/>
<path d="M37.9269 129.456C37.1066 129.725 36.265 129.784 35.4424 129.613C34.6065 129.448 33.8746 129.09 33.2271 128.532C32.489 127.894 32.0118 127.141 31.7758 126.267C31.546 125.406 31.6212 124.518 31.9942 123.623L33.3601 124.814C33.1881 125.34 33.1824 125.831 33.3296 126.293C33.4768 126.755 33.7642 127.162 34.1786 127.521C34.6449 127.918 35.1412 128.173 35.6943 128.274C36.2474 128.376 36.8108 128.33 37.3853 128.105C37.9527 127.9 38.4847 127.524 38.9672 127.015C39.4496 126.506 39.7807 125.963 39.9472 125.391C40.1137 124.82 40.1139 124.285 39.9549 123.766C39.796 123.247 39.4833 122.79 39.0304 122.386C38.6161 122.027 38.1654 121.796 37.6651 121.7C37.1648 121.604 36.6739 121.66 36.1459 121.877L34.78 120.687C35.6777 120.238 36.5744 120.089 37.4971 120.225C38.4197 120.362 39.2367 120.756 39.9747 121.395C40.6285 121.965 41.075 122.623 41.3332 123.407C41.5851 124.178 41.6115 124.968 41.419 125.789C41.2264 126.609 40.7975 127.359 40.1519 128.044C39.5063 128.729 38.7733 129.206 37.9395 129.481L37.9269 129.456Z" fill="black"/>
<path d="M33.8158 117.186L31.7908 114.846L32.7769 114.038L35.7722 117.514L28.2898 123.618L27.306 122.489L33.789 117.199L33.8158 117.186Z" fill="black"/>
<path d="M23.3838 117.493L31.3151 111.951L32.1909 113.166L24.2595 118.708L23.3838 117.493Z" fill="black"/>
<path d="M23.6715 114.089C22.8182 114.091 22.0232 113.875 21.3126 113.459C20.6021 113.043 20.0279 112.464 19.6231 111.722C19.1483 110.873 18.9587 109.992 19.0276 109.092C19.1099 108.185 19.468 107.36 20.1152 106.611L20.9821 108.177C20.6534 108.625 20.4696 109.095 20.4639 109.586C20.4385 110.071 20.5786 110.551 20.8376 111.036C21.1353 111.564 21.5157 111.956 21.9915 112.238C22.4808 112.512 23.0134 112.64 23.6162 112.606C24.219 112.572 24.8321 112.391 25.4626 112.044C26.0931 111.697 26.5731 111.284 26.9097 110.785C27.2527 110.299 27.438 109.765 27.465 109.216C27.492 108.667 27.3536 108.123 27.0693 107.588C26.7969 107.11 26.4621 106.743 26.0383 106.498C25.6145 106.253 25.1275 106.151 24.5578 106.184L23.6909 104.618C24.6735 104.473 25.5631 104.61 26.3729 105.024C27.1828 105.437 27.8216 106.078 28.2901 106.914C28.7012 107.669 28.9065 108.448 28.8794 109.264C28.8523 110.081 28.6077 110.864 28.1465 111.583C27.6853 112.302 27.0484 112.904 26.2169 113.351C25.3918 113.811 24.5328 114.036 23.6794 114.038L23.6715 114.089Z" fill="black"/>
<path d="M23.9678 97.2368L21.0947 102.075L25.1477 100.567L25.6483 101.969L16.5871 105.353L16.0865 103.95L20.2199 102.402L14.9003 100.608L14.2698 98.8449L20.1456 100.88L23.3192 95.4045L23.9741 97.2494L23.9678 97.2368Z" fill="black"/>
<path d="M12.076 87.0182L13.3518 86.7894L13.6881 89.203L21.9008 87.7397L22.1082 89.2259L13.8956 90.6893L14.2382 93.1155L12.9624 93.3443L12.076 87.0182Z" fill="black"/>
<path d="M20.9119 82.3153C20.4766 83.0525 19.8799 83.6344 19.1343 84.0861C18.3888 84.5377 17.5298 84.7627 16.5898 84.7922C15.6497 84.8216 14.8209 84.638 14.0835 84.2354C13.3461 83.8329 12.7711 83.2861 12.3656 82.5759C11.96 81.8656 11.7681 81.08 11.7763 80.2258C11.7916 79.3523 12.0165 78.5629 12.4517 77.8256C12.8869 77.0884 13.4702 76.5132 14.2221 76.0742C14.974 75.6351 15.8132 75.4042 16.7533 75.3748C17.6933 75.3453 18.5222 75.5289 19.273 75.9248C20.0237 76.3207 20.5853 76.8741 20.9846 77.5718C21.3838 78.2694 21.5821 79.0676 21.5668 79.9411C21.5452 80.802 21.3203 81.5915 20.8985 82.322L20.9119 82.3153ZM19.8142 78.3461C19.5283 77.8752 19.1274 77.509 18.6043 77.2669C18.0812 77.0247 17.4493 76.9 16.7409 76.9238C16.0325 76.9475 15.4068 77.1031 14.8772 77.3837C14.3476 77.6644 13.9211 78.0509 13.631 78.5424C13.3408 79.0339 13.1949 79.5792 13.1797 80.185C13.1645 80.7909 13.3029 81.3356 13.5691 81.8007C13.8352 82.2658 14.2496 82.6253 14.779 82.88C15.3084 83.1347 15.9206 83.2535 16.629 83.2297C17.3373 83.206 17.963 83.0504 18.5061 82.7631C19.0554 82.4883 19.4621 82.0959 19.7657 81.5977C20.0621 81.1188 20.2215 80.5668 20.2304 79.9484C20.2456 79.3425 20.1071 78.7978 19.8213 78.3268L19.8142 78.3461Z" fill="black"/>
<path d="M22.3981 69.4177C22.0693 69.8656 21.6642 70.1942 21.1961 70.3969C20.7279 70.5995 20.2236 70.6629 19.6902 70.5676L20.0674 68.9778C20.4701 69.0125 20.8428 68.9205 21.166 68.6959C21.4891 68.4713 21.7099 68.109 21.8283 67.6089C21.9537 67.0896 21.9114 66.67 21.7279 66.3367C21.5444 66.0035 21.2451 65.8069 20.8432 65.7402C20.5336 65.6905 20.2546 65.7355 20.0198 65.8688C19.7778 66.0213 19.5681 66.2049 19.4097 66.4573C19.2315 66.7039 19.0375 67.0528 18.7947 67.5049C18.4895 68.0669 18.2136 68.5198 17.9668 68.8636C17.72 69.2074 17.3827 69.4706 16.9674 69.6784C16.552 69.8862 16.0548 69.9302 15.482 69.8232C14.9486 69.7279 14.5106 69.522 14.175 69.186C13.8395 68.8501 13.6119 68.4287 13.512 67.9276C13.4122 67.4266 13.4266 66.8526 13.5875 66.2368C13.8014 65.3584 14.1956 64.6732 14.7765 64.1937C15.3575 63.7142 16.0572 63.5058 16.8554 63.5946L16.4569 65.2423C16.107 65.2127 15.7871 65.3097 15.4765 65.5595C15.166 65.8093 14.9586 66.165 14.841 66.6331C14.7376 67.0627 14.7682 67.4252 14.9257 67.74C15.0832 68.0548 15.3762 68.2388 15.7978 68.3113C16.0877 68.3552 16.3399 68.3235 16.5684 68.1777C16.7836 68.0386 16.9933 67.855 17.158 67.6151C17.3228 67.3753 17.5231 67.039 17.7588 66.6062C18.0774 66.0375 18.3667 65.5779 18.6269 65.2274C18.8871 64.8768 19.2181 64.601 19.6397 64.4058C20.0551 64.1981 20.5523 64.154 21.1582 64.2603C21.6325 64.3379 22.0571 64.5505 22.4132 64.8604C22.7755 65.183 23.0228 65.6103 23.1621 66.1231C23.3076 66.6485 23.2932 67.2225 23.1448 67.8635C22.9973 68.4725 22.7591 69.001 22.417 69.4555L22.3981 69.4177Z" fill="black"/>
<path d="M17.0474 59.358L19.6796 60.1666L20.821 57.1241L22.0288 57.496L20.8874 60.5385L23.6379 61.3825L24.9275 57.9666L26.1353 58.3385L24.2935 63.1955L15.3071 60.4332L17.1489 55.5762L18.3567 55.9481L17.0671 59.3639L17.0474 59.358Z" fill="black"/>
<path d="M20.0937 52.2151L22.606 53.3198L24.1011 50.4151L25.2395 50.9162L23.7445 53.8209L26.3616 54.9676L28.0444 51.7014L29.1828 52.2025L26.784 56.8501L18.233 53.0829L20.6317 48.4353L21.7701 48.9363L20.0874 52.2025L20.0937 52.2151Z" fill="black"/>
<path d="M33.8235 42.2925L31.3497 45.4506L32.4664 47.0803L31.4549 48.3734L26.0203 40.3552L27.1476 38.9254L36.8125 41.5372L35.7876 42.837L33.8235 42.2925ZM32.5361 41.9289L28.0759 40.6808L30.6157 44.3851L32.5361 41.9289Z" fill="black"/>
<path d="M40.9881 37.1658C40.4412 37.3449 39.944 37.3889 39.4437 37.2929C38.9568 37.1901 38.5195 36.9522 38.1785 36.5718L39.4633 35.4569C39.761 35.7172 40.1014 35.8619 40.4985 35.8521C40.8956 35.8424 41.2834 35.6799 41.6956 35.332C42.1016 34.9715 42.3491 34.5958 42.4115 34.2182C42.4739 33.8407 42.37 33.4991 42.1062 33.206C41.8935 32.9818 41.665 32.8599 41.3877 32.8412C41.1103 32.8225 40.8314 32.8676 40.5508 32.9765C40.2703 33.0853 39.8888 33.2604 39.4333 33.4882C38.8438 33.7831 38.3489 33.9992 37.9485 34.1365C37.5482 34.2738 37.1109 34.3036 36.676 34.2378C36.241 34.172 35.8172 33.9275 35.4376 33.5034C35.0768 33.1171 34.8761 32.6822 34.8085 32.2123C34.7543 31.7356 34.8388 31.2683 35.0824 30.7843C35.3127 30.307 35.6879 29.8517 36.1751 29.4191C36.8782 28.8155 37.6079 28.4662 38.3636 28.4031C39.1193 28.3399 39.7685 28.5662 40.3506 29.0936L39.0319 30.2413C38.7861 30.0179 38.4647 29.9111 38.0738 29.9334C37.683 29.9557 37.3016 30.1308 36.9161 30.4653C36.578 30.7604 36.3714 31.0841 36.2964 31.4365C36.2214 31.7889 36.3324 32.1112 36.616 32.4101C36.8026 32.6159 37.0248 32.7251 37.2825 32.7379C37.5401 32.7508 37.8057 32.7124 38.0862 32.6035C38.3668 32.4947 38.7348 32.3263 39.177 32.1051C39.7665 31.8103 40.2748 31.5875 40.6948 31.4561C41.1085 31.3121 41.5459 31.2822 42.0005 31.354C42.4551 31.4257 42.8655 31.6769 43.2586 32.0943C43.5807 32.4369 43.7689 32.8466 43.8562 33.3224C43.9435 33.7983 43.8716 34.2908 43.6602 34.8058C43.4488 35.3209 43.0862 35.8014 42.5723 36.2474C42.0788 36.6674 41.5618 36.9732 41.0346 37.1582L40.9881 37.1658Z" fill="black"/>
<path d="M42.4752 24.6306L45.7079 29.4524C46.097 30.0292 46.5452 30.356 47.066 30.4261C47.5797 30.5155 48.1392 30.3615 48.7043 29.9844C49.2828 29.6006 49.651 29.1645 49.7694 28.6645C49.9011 28.1578 49.769 27.6257 49.3799 27.0488L46.1472 22.227L47.4721 21.3596L50.6922 26.1563C51.1001 26.7708 51.3095 27.3903 51.314 28.002C51.3185 28.6138 51.1386 29.1918 50.7949 29.7101C50.4511 30.2284 49.99 30.6794 49.4115 31.0633C48.833 31.4471 48.2317 31.6849 47.6076 31.7767C46.9898 31.8811 46.3965 31.8 45.8269 31.5654C45.251 31.3183 44.7658 30.884 44.3578 30.2694L41.1377 25.4728L42.4626 24.6054L42.4752 24.6306Z" fill="black"/>
<path d="M58.6333 25.9936L55.0805 23.6461L53.9827 24.1638L55.514 27.4595L54.0749 28.1321L50.2336 19.8836L53.2591 18.4647C53.9353 18.1422 54.5476 17.9933 55.1165 17.9921C55.6854 17.9909 56.1715 18.1256 56.5749 18.3961C56.9782 18.6666 57.287 19.016 57.5003 19.476C57.7515 20.0116 57.8167 20.5772 57.6825 21.1796C57.5617 21.7752 57.1778 22.3137 56.5638 22.794L60.3269 25.1936L58.6199 26.0003L58.6333 25.9936ZM53.4741 23.0801L55.0605 22.3337C55.6027 22.0782 55.948 21.7638 56.0962 21.3905C56.2579 21.0106 56.2218 20.6035 56.0274 20.1813C55.8195 19.7658 55.5422 19.4794 55.1546 19.3742C54.7804 19.2623 54.3092 19.3248 53.7669 19.5803L52.1805 20.3266L53.467 23.0993L53.4741 23.0801Z" fill="black"/>
<path d="M66.446 17.8033C66.3418 18.2647 66.0927 18.7042 65.6725 19.1033C65.2587 19.515 64.6818 19.8351 63.915 20.0769L62.2412 20.6151L63.3099 24.1579L61.796 24.6476L59.1707 15.9168L62.345 14.8957C63.0519 14.668 63.6823 14.5888 64.2425 14.6707C64.7964 14.74 65.2612 14.9325 65.6236 15.255C65.9859 15.5776 66.234 15.973 66.3937 16.4598C66.5283 16.8963 66.5431 17.3612 66.4389 17.8226L66.446 17.8033ZM64.7447 18.1191C64.9584 17.7761 64.9947 17.38 64.8539 16.931C64.5603 15.9758 63.8599 15.6807 62.7196 16.0464L61.0458 16.5846L61.9005 19.4316L63.5743 18.8935C64.148 18.7009 64.5381 18.4428 64.7384 18.1065L64.7447 18.1191Z" fill="black"/>
<path d="M74.3407 21.3957L71.6235 18.1737L70.4407 18.3875L70.9783 22.0072L69.4298 22.2937L68.0961 13.2317L71.3656 12.6352C72.0897 12.5091 72.7248 12.5063 73.27 12.6586C73.8152 12.811 74.232 13.0748 74.5407 13.4241C74.8495 13.7735 75.0431 14.2276 75.1233 14.7228C75.2145 15.3069 75.1142 15.8766 74.8225 16.4318C74.5307 16.9871 74.0373 17.4071 73.3083 17.7245L76.2083 21.044L74.3541 21.389L74.3407 21.3957ZM70.2654 17.2L71.9864 16.8901C72.5711 16.7866 72.9802 16.5662 73.2466 16.2283C73.4997 15.897 73.596 15.4868 73.515 15.0235C73.4474 14.5535 73.2442 14.2144 72.9189 13.9993C72.5935 13.7842 72.1318 13.7318 71.5337 13.842L69.8127 14.1519L70.2591 17.1874L70.2654 17.2Z" fill="black"/>
<path d="M78.9907 11.6387L79.382 20.8259L77.8108 20.9664L77.4195 11.7792L78.9907 11.6387Z" fill="black"/>
<path d="M82.6344 20.4269C82.1373 20.2033 81.7482 19.8942 81.4804 19.4928C81.2127 19.0915 81.0986 18.6291 81.1185 18.0996L82.7984 18.1094C82.8148 18.5105 82.9589 18.832 83.2235 19.0932C83.5016 19.3477 83.8884 19.4848 84.4242 19.4844C84.96 19.484 85.3864 19.3652 85.7103 19.1087C86.0209 18.8589 86.1943 18.536 86.2244 18.1273C86.2387 17.8211 86.1592 17.5617 85.9789 17.3685C85.7985 17.1754 85.5708 17.0217 85.3022 16.9199C85.0272 16.8055 84.653 16.6936 84.1535 16.5657C83.5358 16.4024 83.0505 16.2358 82.6644 16.0668C82.2784 15.8978 81.9672 15.6442 81.7113 15.2999C81.4553 14.9556 81.3413 14.4932 81.3754 13.9251C81.4087 13.389 81.5656 12.9326 81.8668 12.5301C82.1679 12.1275 82.5723 11.8308 83.0735 11.6273C83.5881 11.4171 84.1594 11.3203 84.8142 11.3233C85.74 11.3325 86.4885 11.5563 87.0525 12.0141C87.6165 12.4719 87.9055 13.083 87.9257 13.8601L86.193 13.8452C86.1884 13.5012 86.0301 13.2183 85.7583 12.9764C85.4732 12.7412 85.0729 12.6108 84.5836 12.6037C84.1274 12.5957 83.7673 12.7129 83.4575 12.9308C83.1612 13.142 83.0074 13.4708 82.9773 13.8795C82.9638 14.1539 83.037 14.4006 83.211 14.5812C83.3851 14.7617 83.5931 14.9096 83.868 15.0239C84.1367 15.1257 84.5038 15.2569 84.9837 15.379C85.6076 15.5549 86.1127 15.7273 86.4987 15.8963C86.8847 16.0653 87.2156 16.3249 87.4778 16.6817C87.7401 17.0386 87.8542 17.501 87.813 18.0884C87.7813 18.5608 87.6314 18.9978 87.3365 19.413C87.0551 19.8214 86.6562 20.1626 86.1408 20.4047C85.6317 20.6593 85.0336 20.7696 84.3457 20.7673C83.7043 20.7576 83.1315 20.6505 82.6344 20.4269Z" fill="black"/>
<path d="M92.2737 13.1172L91.7565 15.8003L95.0004 16.2242L94.7714 17.4408L91.5276 17.0168L91.0009 19.8149L94.6537 20.2862L94.4248 21.5027L89.2292 20.8271L90.967 11.677L96.1625 12.3526L95.9336 13.5692L92.2808 13.0979L92.2737 13.1172Z" fill="black"/>
</g>
<defs>
<clipPath id="clip0_447_597">
<rect width="130" height="151" fill="white" transform="translate(0 18.6807) rotate(-8.26185)"/>
</clipPath>
</defs>
</svg>
