<svg width="148" height="148" viewBox="0 0 148 148" fill="none" xmlns="http://www.w3.org/2000/svg">
<g clip-path="url(#clip0_410_930)">
<path d="M74.0006 0.653809C33.4967 0.653809 0.654297 33.4962 0.654297 74.0001C0.654297 103.443 18.0038 128.807 43.0278 140.482C43.2501 139.397 43.2239 138.247 42.8709 137.018C39.7069 126.258 42.361 121.969 44.832 110.046C45.0804 108.817 45.2635 104.267 45.0935 103.038L42.7925 85.5577C48.5713 91.7549 54.8992 128.101 54.8992 128.101L69.49 77.2686C63.0575 75.2421 58.7953 63.4361 58.8084 54.2058C58.8084 49.8782 58.5861 47.1195 57.1479 44.6224C56.0105 42.6351 57.6448 42.7135 59.4098 43.3411C60.6126 43.7725 61.8285 45.8252 62.4691 44.0079C64.1688 39.275 67.4766 40.334 67.4766 40.334C69.0193 36.7909 71.072 37.8238 71.072 37.8238C73.373 36.2418 75.1642 38.6997 75.1642 38.6997C85.5451 34.0323 87.1402 43.7072 87.1402 43.7072C89.1144 42.5436 92.7098 42.5436 94.1218 42.792C95.5338 43.0404 95.8214 44.2171 95.8214 44.2171C101.992 45.8252 99.1684 57.4612 99.1684 57.4612L100.855 56.193C107.797 53.2644 109.157 56.8729 109.157 56.8729C103.941 56.2715 90.0949 77.2425 83.937 78.4061C77.779 79.5697 74.2228 78.21 74.2228 78.21C69.0716 96.0955 61.7762 124.31 56.4681 145.228C62.09 146.614 67.9603 147.359 74.0137 147.359C114.518 147.359 147.36 114.517 147.36 74.0132C147.36 33.5093 114.504 0.653809 74.0006 0.653809Z" stroke="black" stroke-miterlimit="10"/>
<path d="M83.8318 78.5369C89.9897 77.3733 103.835 56.2192 109.052 56.8207C109.052 56.8207 107.692 53.186 100.75 56.1408L99.0632 57.4221C99.0632 57.4221 101.874 45.6814 95.7162 44.0733C95.7162 44.0733 95.4286 42.8836 94.0166 42.6482C92.6046 42.4129 89.0092 42.3998 87.0349 43.5765C87.0349 43.5765 85.4399 33.8231 75.059 38.5298C75.059 38.5298 73.2678 36.0458 70.9667 37.6408C70.9667 37.6408 68.901 36.5949 67.3713 40.1641C67.3713 40.1641 64.0636 39.092 62.3639 43.8641C61.7102 45.6945 60.5074 43.6157 59.3046 43.1973C57.5395 42.5698 55.9053 42.4913 57.0427 44.4917C58.4809 47.015 58.7031 49.7998 58.7031 54.1535C58.7031 63.4493 62.9653 75.3599 69.3848 77.4125L54.794 128.663C54.794 128.663 48.466 92.0164 42.6872 85.767L44.9883 103.404C45.1583 104.659 44.9883 109.235 44.7268 110.477C42.2558 122.505 39.6017 126.82 42.7657 137.672C43.1187 138.901 43.1448 140.064 42.9226 141.162C47.1978 143.176 51.6823 144.771 56.3498 145.934C61.6579 124.846 68.9533 96.3832 74.1046 78.3539C74.1046 78.3539 77.6607 79.7136 83.8187 78.55L83.8318 78.5369Z" fill="black"/>
<path d="M16.2906 63.4362C15.7414 62.9002 15.3754 62.2726 15.1662 61.5404C14.957 60.8083 14.957 60.063 15.14 59.3047C15.3492 58.4288 15.7545 57.7097 16.3559 57.1344C16.9573 56.5592 17.6764 56.2192 18.5393 56.1016L18.1471 57.7228C17.6634 57.8274 17.2711 58.0496 16.9573 58.3765C16.6566 58.7033 16.4344 59.1086 16.3167 59.6055C16.186 60.1546 16.186 60.6645 16.3167 61.1482C16.4475 61.632 16.722 62.0503 17.1273 62.4033C17.5195 62.7563 18.0294 63.0047 18.6308 63.1616C19.2323 63.3185 19.7945 63.3185 20.3174 63.1878C20.8273 63.057 21.2718 62.8086 21.6248 62.4556C21.9778 62.0895 22.2263 61.632 22.357 61.0959C22.4747 60.5991 22.4747 60.1415 22.357 59.71C22.2393 59.2786 21.9909 58.8994 21.6118 58.5857L22.004 56.9645C22.71 57.4613 23.2068 58.115 23.4552 58.8994C23.7036 59.6839 23.7298 60.5206 23.5206 61.3835C23.3245 62.1549 22.9846 62.8217 22.4616 63.3708C21.9517 63.9199 21.3241 64.2991 20.592 64.5213C19.8598 64.7436 19.1015 64.7436 18.2909 64.5475C17.4803 64.3514 16.8135 63.9853 16.2644 63.4623L16.2906 63.4362Z" fill="black"/>
<path d="M24.4225 54.6111L25.4685 51.9571L26.5144 52.3624L24.9455 56.3108L17.0879 53.1991L17.5978 51.9048L24.4094 54.6111H24.4225Z" fill="black"/>
<path d="M20.0168 46.5049L27.5999 50.231L26.9854 51.4731L19.4023 47.7469L20.0168 46.5049Z" fill="black"/>
<path d="M22.8548 45.1583C22.5148 44.4785 22.358 43.7594 22.4102 43.0011C22.4625 42.2428 22.6979 41.5368 23.1163 40.8831C23.6 40.1248 24.2276 39.5756 24.9728 39.2226C25.718 38.8696 26.5286 38.7781 27.3784 38.9611L26.4763 40.3601C25.9795 40.3078 25.535 40.3732 25.1428 40.5824C24.7505 40.7915 24.4106 41.1053 24.136 41.5368C23.8353 42.0074 23.6654 42.4912 23.6392 43.0011C23.6131 43.511 23.7307 43.9947 23.9922 44.4523C24.2537 44.9099 24.6459 45.3152 25.1689 45.6551C25.6919 45.9951 26.2148 46.1912 26.7509 46.2304C27.2869 46.2696 27.7707 46.1912 28.2283 45.9559C28.6859 45.7205 29.0519 45.3806 29.3657 44.9099C29.6403 44.4785 29.7972 44.047 29.8233 43.6025C29.8495 43.158 29.7318 42.7265 29.4834 42.2951L30.3855 40.8961C30.8954 41.6021 31.1438 42.3604 31.1307 43.1972C31.1307 44.0209 30.8693 44.8184 30.3855 45.5767C29.9541 46.2435 29.4049 46.7534 28.7382 47.1064C28.0714 47.4594 27.3654 47.6163 26.594 47.5901C25.8357 47.564 25.1035 47.3156 24.4106 46.871C23.7177 46.4265 23.1947 45.8643 22.8548 45.1845V45.1583Z" fill="black"/>
<path d="M36.3978 37.7583L31.4035 37.6799L34.2275 40.1901L33.2992 41.223L26.9844 35.6011L27.9126 34.5682L30.789 37.1308L30.096 32.1103L31.2596 30.8159L31.9787 36.3725L37.6137 36.3986L36.4109 37.7452L36.3978 37.7583Z" fill="black"/>
<path d="M39.8114 23.7167L40.5044 24.6188L38.7132 25.9785L43.1584 31.7965L42.0602 32.6333L37.615 26.8153L35.8238 28.1881L35.1309 27.2859L39.8114 23.7036V23.7167Z" fill="black"/>
<path d="M47.0672 28.5543C46.3089 28.5543 45.6029 28.3451 44.9492 27.9529C44.2955 27.5607 43.7725 26.9985 43.3672 26.2794C42.975 25.5603 42.7789 24.8151 42.805 24.0568C42.8312 23.2985 43.0404 22.5925 43.4326 21.9519C43.8379 21.3112 44.374 20.8013 45.0669 20.4222C45.7598 20.043 46.492 19.8469 47.2503 19.86C48.0086 19.86 48.7146 20.0692 49.3552 20.4614C50.0089 20.8536 50.5319 21.4158 50.9241 22.1349C51.3164 22.854 51.5125 23.5992 51.4994 24.3706C51.4863 25.1289 51.2771 25.8349 50.8718 26.4755C50.4665 27.1162 49.9174 27.6261 49.2245 28.0183C48.5315 28.3974 47.8125 28.5805 47.0542 28.5805L47.0672 28.5543ZM49.7867 25.8872C50.0482 25.4557 50.1658 24.972 50.1658 24.436C50.1658 23.8999 49.9959 23.3639 49.6951 22.8148C49.3944 22.2656 49.0284 21.8473 48.5838 21.5596C48.1393 21.272 47.6686 21.1151 47.1588 21.102C46.6489 21.102 46.152 21.2197 45.6683 21.4943C45.1846 21.7688 44.8054 22.1088 44.5439 22.5402C44.2824 22.9716 44.1517 23.4554 44.1648 23.9784C44.1648 24.5144 44.3347 25.0504 44.6354 25.5996C44.9361 26.1487 45.3153 26.5671 45.7598 26.8678C46.2043 27.1685 46.675 27.3123 47.1849 27.3254C47.6948 27.3254 48.1916 27.2077 48.6754 26.9462C49.1722 26.6717 49.5383 26.3186 49.7997 25.8872H49.7867Z" fill="black"/>
<path d="M57.9449 23.8476C57.4481 23.7822 57.0297 23.6254 56.6767 23.3377C56.3237 23.0632 56.0753 22.6971 55.9446 22.2264L57.3696 21.808C57.5004 22.148 57.7226 22.3964 58.0364 22.5533C58.3502 22.7102 58.7294 22.7102 59.1739 22.5794C59.6315 22.4487 59.9583 22.2264 60.1414 21.9257C60.3375 21.625 60.3767 21.2981 60.2721 20.9582C60.1937 20.6837 60.0499 20.4875 59.8407 20.3699C59.6315 20.2522 59.3961 20.1738 59.1347 20.1476C58.8732 20.1215 58.5071 20.1215 58.0626 20.1476C57.4873 20.1607 57.0166 20.1476 56.6506 20.1084C56.2714 20.0692 55.9315 19.9254 55.6046 19.69C55.2778 19.4547 55.0424 19.0886 54.8986 18.5787C54.7548 18.108 54.7548 17.6635 54.8855 17.2451C55.0163 16.8268 55.2647 16.4607 55.6177 16.1469C55.9707 15.8331 56.4414 15.5978 56.9905 15.4278C57.7749 15.1925 58.4809 15.1925 59.0954 15.4409C59.7099 15.6893 60.1544 16.1338 60.4159 16.8006L58.9516 17.2321C58.834 16.9444 58.6248 16.7353 58.311 16.6045C57.9972 16.4738 57.6181 16.4738 57.1997 16.6045C56.8205 16.7222 56.5329 16.9052 56.3499 17.1798C56.1668 17.4413 56.1276 17.755 56.2453 18.1211C56.3237 18.3695 56.4544 18.5526 56.6506 18.6702C56.8467 18.7879 57.082 18.8533 57.3435 18.8794C57.605 18.9056 57.958 18.9056 58.3894 18.8925C58.9647 18.8925 59.4484 18.8925 59.8276 18.9448C60.2067 18.9971 60.5597 19.1278 60.8866 19.3632C61.2135 19.5985 61.4619 19.9777 61.6057 20.4875C61.7233 20.8928 61.7364 21.3243 61.6188 21.7557C61.5011 22.1872 61.2658 22.5794 60.9128 22.9194C60.5597 23.2724 60.0891 23.5208 59.5138 23.7038C58.9647 23.8607 58.4548 23.913 57.958 23.8607L57.9449 23.8476Z" fill="black"/>
<path d="M63.8162 15.0485L64.2215 17.4934L67.0978 17.0227L67.2809 18.134L64.4045 18.6047L64.8229 21.1542L68.0653 20.6181L68.2483 21.7294L63.6462 22.4877L62.2734 14.1333L66.8756 13.375L67.0586 14.4863L63.8162 15.0224V15.0485Z" fill="black"/>
<path d="M70.7325 14.2118L70.8502 16.6959L73.7657 16.5521L73.818 17.6765L70.9024 17.8203L71.0201 20.409L74.3017 20.2521L74.354 21.3765L69.6865 21.5988L69.2812 13.1397L73.9487 12.9175L74.001 14.0419L70.7194 14.1988L70.7325 14.2118Z" fill="black"/>
<path d="M91.468 128.545L87.9772 129.121L87.6634 130.925L86.2383 131.16L87.8333 122.309L89.4153 122.047L93.7952 129.905L92.357 130.14L91.468 128.532V128.545ZM90.8927 127.499L88.8923 123.852L88.1733 127.957L90.8927 127.499Z" fill="black"/>
<path d="M101.34 118.099L101.784 119.132L98.4895 120.557L99.4831 122.845L102.046 121.734L102.49 122.767L99.9276 123.878L101.392 127.277L100.124 127.826L96.7637 120.073L101.327 118.099H101.34Z" fill="black"/>
<path d="M103.587 116.818L106.502 121.341C106.855 121.877 107.248 122.191 107.705 122.283C108.163 122.374 108.647 122.256 109.143 121.93C109.653 121.603 109.967 121.211 110.072 120.753C110.176 120.295 110.059 119.798 109.706 119.262L106.79 114.739L107.954 113.98L110.856 118.491C111.235 119.066 111.418 119.642 111.431 120.204C111.431 120.766 111.301 121.289 111 121.76C110.699 122.23 110.307 122.636 109.797 122.962C109.287 123.289 108.764 123.498 108.215 123.564C107.666 123.629 107.143 123.564 106.633 123.302C106.123 123.054 105.692 122.649 105.313 122.073L102.41 117.563L103.574 116.818H103.587Z" fill="black"/>
<path d="M120.14 114.281L119.133 115.236L111.759 113.562L116.126 118.125L115.12 119.08L109.275 112.961L110.282 112.007L117.656 113.68L113.302 109.13L114.309 108.176L120.153 114.295L120.14 114.281Z" fill="black"/>
<path d="M125.108 107.418C124.703 107.705 124.271 107.849 123.827 107.888C123.382 107.914 122.951 107.81 122.533 107.548L123.317 106.28C123.644 106.45 123.971 106.476 124.311 106.385C124.651 106.293 124.938 106.045 125.174 105.653C125.422 105.247 125.527 104.868 125.461 104.515C125.396 104.162 125.226 103.901 124.912 103.704C124.677 103.561 124.428 103.508 124.193 103.548C123.958 103.6 123.722 103.704 123.513 103.861C123.304 104.018 123.029 104.254 122.703 104.567C122.284 104.96 121.931 105.26 121.617 105.483C121.304 105.692 120.951 105.822 120.558 105.862C120.166 105.901 119.735 105.783 119.29 105.509C118.872 105.247 118.584 104.92 118.401 104.528C118.218 104.136 118.153 103.691 118.218 103.221C118.283 102.75 118.466 102.266 118.767 101.769C119.199 101.077 119.722 100.606 120.349 100.384C120.977 100.148 121.604 100.201 122.245 100.527L121.434 101.835C121.16 101.691 120.859 101.678 120.532 101.796C120.205 101.913 119.931 102.149 119.695 102.528C119.486 102.868 119.408 103.195 119.447 103.521C119.486 103.848 119.669 104.097 119.996 104.306C120.218 104.437 120.441 104.489 120.663 104.437C120.885 104.384 121.107 104.293 121.317 104.136C121.526 103.979 121.787 103.757 122.114 103.456C122.546 103.064 122.912 102.75 123.226 102.528C123.539 102.306 123.905 102.175 124.298 102.136C124.703 102.096 125.134 102.214 125.579 102.489C125.945 102.711 126.233 103.025 126.429 103.417C126.638 103.809 126.716 104.267 126.677 104.763C126.638 105.26 126.468 105.77 126.154 106.28C125.853 106.764 125.5 107.143 125.095 107.431L125.108 107.418Z" fill="black"/>
<path d="M121.565 96.8536L126.572 98.8539C127.16 99.0893 127.67 99.1154 128.102 98.9193C128.533 98.7232 128.847 98.3571 129.069 97.7949C129.291 97.2327 129.318 96.7359 129.148 96.3045C128.978 95.873 128.585 95.5331 127.997 95.2977L122.99 93.2974L123.5 92.0161L128.481 94.0165C129.121 94.278 129.605 94.631 129.945 95.0886C130.285 95.5462 130.455 96.056 130.494 96.6052C130.533 97.1543 130.429 97.7165 130.207 98.2787C129.984 98.8409 129.671 99.3115 129.265 99.6907C128.86 100.07 128.389 100.305 127.827 100.397C127.278 100.488 126.677 100.397 126.036 100.148L121.055 98.161L121.565 96.8797V96.8536Z" fill="black"/>
<path d="M133.056 88.0545L129.343 89.2704L129.121 90.3033L132.429 90.9962L132.141 92.356L123.865 90.6302L124.467 87.7669C124.597 87.1263 124.82 86.6164 125.133 86.2241C125.447 85.8319 125.813 85.5574 126.232 85.4266C126.65 85.2828 127.095 85.2697 127.552 85.3613C128.088 85.4789 128.546 85.7273 128.925 86.1326C129.304 86.5379 129.5 87.087 129.526 87.7669L133.383 86.4333L133.043 88.0545H133.056ZM128.049 90.081L128.363 88.5775C128.467 88.0676 128.428 87.6623 128.219 87.3485C128.023 87.0348 127.709 86.8386 127.278 86.7471C126.846 86.6556 126.493 86.721 126.192 86.9171C125.892 87.1263 125.696 87.4793 125.591 88.0022L125.277 89.5058L128.049 90.081Z" fill="black"/>
<path d="M129.24 77.935C129.606 78.1573 129.907 78.4972 130.129 78.9417C130.351 79.3993 130.443 79.9746 130.417 80.6675L130.351 82.1972L133.777 82.3541L133.712 83.7399L125.266 83.3739L125.396 80.4583C125.423 79.8046 125.566 79.2686 125.802 78.824C126.05 78.3795 126.364 78.0657 126.756 77.8566C127.148 77.6474 127.58 77.5558 128.05 77.582C128.482 77.5951 128.874 77.7258 129.253 77.935H129.24ZM128.979 79.4385C128.756 79.164 128.417 79.0202 127.985 79.0071C127.057 78.9679 126.573 79.4647 126.534 80.5106L126.468 82.0403L129.227 82.158L129.292 80.6283C129.319 80.1053 129.214 79.7 128.992 79.4385H128.979Z" fill="black"/>
<path d="M133.358 71.1237L130.221 73.4509L130.338 74.4968L133.698 74.1046L133.855 75.4774L125.462 76.4449L125.122 73.5424C125.043 72.9018 125.095 72.3396 125.265 71.8689C125.435 71.3983 125.697 71.0322 126.05 70.7576C126.403 70.4831 126.808 70.3262 127.279 70.2739C127.828 70.2085 128.338 70.3131 128.822 70.5746C129.305 70.8361 129.671 71.2937 129.907 71.9343L133.149 69.4502L133.345 71.0975L133.358 71.1237ZM129.24 74.6276L129.07 73.111C129.005 72.6011 128.835 72.2219 128.547 71.9866C128.259 71.7513 127.893 71.6597 127.462 71.712C127.03 71.7643 126.704 71.9343 126.481 72.2219C126.259 72.5096 126.194 72.9149 126.246 73.4378L126.416 74.9544L129.227 74.6276H129.24Z" fill="black"/>
<path d="M124.049 67.6851L132.273 65.7109L132.599 67.0576L124.376 69.0318L124.049 67.6851Z" fill="black"/>
<path d="M130.991 62.0633C130.965 62.5601 130.821 62.9915 130.572 63.3576C130.324 63.7237 129.958 63.9983 129.513 64.1682L129.003 62.7693C129.33 62.6124 129.566 62.377 129.696 62.0502C129.827 61.7233 129.814 61.3573 129.657 60.9127C129.487 60.4682 129.252 60.1544 128.951 59.9845C128.637 59.8145 128.311 59.7884 127.971 59.9191C127.709 60.0106 127.513 60.1806 127.408 60.3898C127.304 60.612 127.238 60.8474 127.238 61.1089C127.238 61.3703 127.238 61.7364 127.291 62.1809C127.343 62.7431 127.356 63.2138 127.343 63.5929C127.317 63.9721 127.199 64.3251 126.99 64.665C126.781 65.005 126.428 65.2664 125.931 65.4495C125.473 65.6195 125.029 65.6456 124.611 65.541C124.179 65.4364 123.8 65.2141 123.473 64.8742C123.146 64.5343 122.872 64.0898 122.676 63.5537C122.388 62.7823 122.349 62.0894 122.558 61.4488C122.767 60.8212 123.185 60.3505 123.839 60.0498L124.362 61.488C124.088 61.6187 123.878 61.841 123.774 62.1679C123.656 62.4947 123.682 62.8608 123.826 63.2792C123.957 63.6583 124.166 63.9198 124.441 64.0898C124.715 64.2597 125.029 64.2728 125.395 64.1421C125.643 64.0505 125.813 63.9067 125.918 63.6975C126.023 63.4884 126.075 63.253 126.075 62.9915C126.075 62.7301 126.075 62.377 126.023 61.9456C125.97 61.3703 125.957 60.8866 125.983 60.5074C126.009 60.1283 126.127 59.7622 126.336 59.4223C126.559 59.0823 126.912 58.8209 127.408 58.6378C127.814 58.494 128.232 58.4548 128.664 58.5463C129.095 58.6378 129.5 58.847 129.879 59.1739C130.259 59.5007 130.533 59.9583 130.742 60.5205C130.938 61.0566 131.017 61.5664 130.991 62.0633Z" fill="black"/>
<path d="M121.422 57.7355L123.592 56.5457L122.193 53.9832L123.187 53.434L124.586 55.9966L126.861 54.7545L125.279 51.8782L126.272 51.3291L128.521 55.4213L121.108 59.5005L118.859 55.4083L119.853 54.8591L121.435 57.7355H121.422Z" fill="black"/>
</g>
<defs>
<clipPath id="clip0_410_930">
<rect width="148" height="148" fill="white"/>
</clipPath>
</defs>
</svg>
