<svg width="100" height="92" viewBox="0 0 100 92" fill="none" xmlns="http://www.w3.org/2000/svg">
<path d="M15.759 12.6328L27.6418 23.5774" stroke="#494A4A" stroke-width="4" stroke-linecap="round"/>
<path d="M50.1494 2L49.9893 18.1542" stroke="#494A4A" stroke-width="4" stroke-linecap="round"/>
<path d="M84.2549 11.998L72.4848 23.0637" stroke="#494A4A" stroke-width="4" stroke-linecap="round"/>
<path d="M15.759 80.2148L27.6418 70.2083" stroke="#494A4A" stroke-width="4" stroke-linecap="round"/>
<path d="M50.1494 89.5957L49.9893 75.2332" stroke="#494A4A" stroke-width="4" stroke-linecap="round"/>
<path d="M84.2549 80.707L72.4848 70.8687" stroke="#494A4A" stroke-width="4" stroke-linecap="round"/>
<path d="M66.2933 46.4024C66.2933 55.2825 58.961 62.5392 49.8438 62.5392C40.7266 62.5392 33.3943 55.2825 33.3943 46.4024C33.3943 37.5224 40.7266 30.2656 49.8438 30.2656C58.961 30.2656 66.2933 37.5224 66.2933 46.4024Z" stroke="#CC0404" stroke-width="4"/>
<path d="M2 46.0902C29.8306 24.8286 65.4788 22.0144 98 46.0902" stroke="#494A4A" stroke-width="4" stroke-linecap="round"/>
<path d="M2 46.0978C29.5179 68.9197 68.2932 69.8599 97.6873 46.0956" stroke="#494A4A" stroke-width="4" stroke-linecap="round"/>
<circle cx="49.8436" cy="46.7156" r="5.19218" stroke="#494A4A" stroke-width="4"/>
</svg>
