<svg width="199" height="307" viewBox="0 0 199 307" fill="none" xmlns="http://www.w3.org/2000/svg">
<g clip-path="url(#clip0_88_132)">
<path d="M101.161 302.854C100.686 299.047 101.562 293.861 102.106 290.744C102.964 285.821 104.616 281.067 106.694 276.539C112.745 263.369 121.757 250.45 130.18 238.773C139.129 226.374 146.219 212.639 151.22 198.184C154.299 189.278 156.589 180.091 158.022 170.771C158.873 165.246 160.356 157.946 159.687 152.396C159.274 148.984 156.226 146.764 153.072 148.802C152.039 149.467 151.251 150.445 150.537 151.443C147.627 155.5 146.244 159.928 143.165 163.929C139.774 168.344 136.839 173.104 134.392 178.103C132.452 182.06 130.825 186.168 129.523 190.382C128.315 194.289 128.008 198.698 126.456 202.455C123.352 209.974 122.188 218.353 120.436 226.324C119.347 231.266 118.265 236.208 117.013 241.112C116.45 243.326 116.4 245.126 114.31 246.267C112.445 247.289 110.279 247.452 108.277 246.75C104.184 245.314 101.412 240.842 100.567 237.299C100.054 235.154 99.2089 233.16 98.3077 231.046C97.4566 229.052 96.5805 226.989 95.9296 224.662C95.6793 223.79 95.4102 222.931 95.1161 222.078C94.4653 222.323 93.7894 222.555 93.0885 222.787C72.8437 229.453 50.1081 226.462 32.2664 214.784C22.7542 208.557 14.8377 199.971 9.28057 190.043C6.32051 184.763 -4.33697 165.353 1.92735 160.097C4.69967 157.771 11.5084 161.032 14.6688 161.841C20.0945 163.233 25.5015 164.688 30.8521 166.325C41.6285 169.617 52.2296 173.625 62.1174 179.087C79.8402 188.871 91.7055 200.517 98.145 214.508C100.692 213.072 102.632 211.429 104.078 209.51C109.553 202.241 107.47 191.862 105.454 181.828C105.098 180.053 104.728 178.215 104.416 176.441C102.463 165.472 102.657 154.139 104.879 143.227C105.986 137.777 107.601 132.434 109.691 127.279C110.329 125.711 112.1 123.183 110.317 121.81C109.078 120.851 105.542 121.076 103.946 120.593C99.6407 119.283 95.6856 116.78 92.7255 113.375C90.4538 110.76 88.7955 107.706 87.0369 104.739C85.5413 102.212 83.7702 100.01 82.8253 97.2448C80.5536 90.5908 79.1768 83.9869 78.1255 77.0382C77.6561 73.9401 77.1742 70.7416 76.5422 67.6749C75.4157 62.1811 73.5008 57.1577 70.7347 52.2973C69.5206 50.165 68.7884 48.71 66.6169 47.5373C64.8772 46.5966 62.7557 46.515 61.4477 44.828C59.8207 42.7208 60.9659 39.4032 63.1687 37.9169C65.3716 36.4305 68.2127 36.3365 70.8661 36.5183C75.0528 36.8068 79.1518 36.4243 83.2821 37.2458C87.1496 38.0172 90.798 39.9112 94.5153 40.6889C96.0047 32.8934 97.0311 26.0074 101.549 19.159C105.911 12.5551 110.067 7.29966 116.669 3.26712C118.978 1.85604 122.057 0.250552 124.986 -0.000305925C128.622 -0.307607 131.613 2.85948 133.334 6.08927C137.59 14.0791 142.621 19.4412 144.229 28.7606C144.329 29.3501 144.43 29.9459 144.517 30.5354C154.511 17.8733 167.372 8.18394 181.771 2.48319C184.318 1.47348 190.714 -0.652537 195.02 1.41704C196.753 2.25114 197.967 3.65595 198.531 5.48094C199.907 9.9274 197.848 12.7496 196.196 15.0135C195.671 15.7348 195.132 16.4748 194.682 17.2713C193.468 19.4224 191.822 21.6926 190.226 23.8939C188.718 25.976 187.291 27.939 186.29 29.7013L186.252 29.764C181.709 37.296 178.442 45.3799 175.276 53.1941C172.028 61.2153 168.673 69.5062 163.905 77.4207C157.747 87.6307 149.874 98.1165 138.153 98.4991C128.734 98.8189 119.635 92.0583 113.815 80.4561C112.176 77.1824 110.818 73.7582 109.503 70.4469C107.257 64.7838 105.142 59.4342 101.737 54.8561C98.558 50.5727 94.1711 47.2739 89.3149 45.1165C85.9793 43.6302 77.9502 40.4255 74.4332 41.385C67.105 43.3918 75.8663 50.165 78.1067 52.9307C82.9066 58.8384 84.6526 66.3642 85.6101 73.7708C86.7741 82.7828 87.5877 92.8297 91.38 101.196C95.1724 109.562 106.13 115.256 114.454 117.345C115.605 115.294 116.838 113.287 118.152 111.337C120.874 107.298 124.729 102.438 130.462 100.688C133.885 99.6405 137.921 100.18 140.994 102.093C142.79 103.209 144.311 104.996 144.855 107.072C145.437 109.273 144.555 111.011 143.46 112.88C141.282 116.58 137.99 119.609 134.129 121.465C131.663 122.65 129.129 123.271 126.394 123.334C123.659 123.397 120.868 123.246 118.434 124.626C116.85 125.523 115.655 127.009 114.816 128.627C111.744 134.547 110.154 141.164 109.585 147.786C109.009 154.491 108.358 160.737 110.01 167.372C112.063 175.625 111.763 183.521 112.282 191.881C112.463 194.835 113.39 197.331 113.189 200.391C112.952 204.06 112.075 207.741 109.973 210.814C107.951 213.762 103.108 215.531 101.693 218.516C99.6407 222.849 105.523 231.654 107.538 235.198C108.727 237.293 110.411 242.322 112.682 238.465C114.191 235.907 114.009 232.451 114.04 229.597C114.091 224.587 114.604 219.513 115.298 214.552C116.669 204.744 119.272 195.155 123.027 185.992C126.732 176.955 131.344 168.294 136.776 160.179C139.573 155.996 142.821 152.208 145.775 148.156C148.209 144.814 150.056 141.139 154.868 140.969C158.022 140.863 160.895 143.045 162.522 145.748C167.215 153.556 164.293 163.772 162.784 172.157C159.53 190.206 153.698 207.779 145.531 224.191C141.751 231.78 137.633 240.861 131.738 246.976C125.418 253.529 120.111 260.923 115.799 268.995C111.712 276.646 107.451 285.081 105.217 293.485C104.922 294.595 102.976 307.012 103.289 306.975C101.443 307.188 101.287 304.077 101.13 302.835L101.161 302.854ZM9.21799 168.332C5.53825 172.289 13.7426 186.619 16.3209 190.645C21.2209 198.297 27.7982 205.283 35.433 210.256C43.0678 215.23 53.7316 216.089 62.5179 217.149C68.2941 217.845 74.1203 218.215 79.9341 217.989C82.8315 217.876 85.7541 217.657 88.614 217.18C91.4739 216.703 91.9245 216.81 91.3175 213.975C89.5715 205.785 80.8665 199.099 74.5521 194.502C65.1087 187.623 54.0507 182.273 43.3181 177.764C36.9099 175.073 30.3577 172.734 23.6929 170.771C20.714 169.893 11.8589 165.516 9.21799 168.332ZM120.405 118.361C124.097 118.687 127.821 118.455 131.419 117.596C135.405 116.642 140.731 113.563 140.099 109.7C139.867 108.301 138.854 107.405 138.04 106.897C136.332 105.83 134.01 105.517 132.12 106.094C128.084 107.323 125.036 111.23 122.839 114.498C121.988 115.758 121.175 117.044 120.399 118.354L120.405 118.361ZM101.512 42.2943C101.512 42.2943 101.574 42.3257 101.599 42.3382C109.597 46.1011 113.052 58.9137 115.136 66.5649C116.068 69.9953 116.268 73.6453 117.664 76.9504C118.978 80.0547 121.8 82.6511 123.709 85.4607C125.267 87.7624 126.97 90.0514 129.291 91.5691C137.565 96.9814 146.119 89.3867 151.226 83.1905C154.518 79.1955 159.086 75.0501 161.871 70.8232C165.526 65.2667 167.096 57.0699 169.637 50.88C174.85 38.1803 180.914 25.4681 187.667 13.7593C188.793 11.8088 189.619 7.74493 191.803 6.1708C186.046 6.60353 172.334 13.0004 165.813 17.7981C157.916 23.6117 151.026 30.7925 145.475 38.8827C146.332 51.0242 145.012 63.3413 141.576 75.0062C140.662 78.1106 138.547 81.9236 135.374 83.3284C133.572 84.1249 131.663 84.0747 129.855 83.1842C124.535 80.5753 125.699 74.4543 126.119 69.6191C126.65 63.5044 128.171 57.4775 130.574 51.8332C132.189 48.0453 134.198 44.4204 136.576 41.0589C137.577 39.6478 139.329 38.1238 139.63 36.5183C139.986 34.5993 139.035 31.658 138.703 29.7389C137.746 24.2075 136.044 18.2308 132.195 13.9788C127.714 9.02431 121.569 3.27339 114.303 12.2227C111.656 15.4839 107.87 17.6538 105.867 21.3477C103.946 24.8785 102.188 29.0428 101.393 32.9875C100.798 35.9163 98.4141 40.7202 101.524 42.2943H101.512ZM140.074 47.8446C135.487 56.6058 132.414 66.1196 131.244 75.878C131.131 76.8249 131.576 77.7468 132.32 78.1106C132.671 78.2799 132.865 78.2548 133.096 78.1545C134.185 77.6716 135.506 75.6334 136.163 73.4007C138.603 65.1161 139.911 56.4866 140.068 47.8383L140.074 47.8446Z" fill="black"/>
<path d="M124.229 284.285C123.766 288.574 122.865 293.811 124.535 298.013C124.805 298.697 125.143 299.368 125.681 299.863C127.189 301.255 128.121 299.819 129.091 298.628C131.482 295.686 133.729 292.626 135.775 289.44C137.659 286.511 139.373 283.47 140.856 280.321C141.313 279.355 141.745 278.377 142.152 277.386C142.34 276.935 142.646 276.652 143.116 276.458C143.56 276.276 144.073 276.245 144.53 276.408C144.968 276.558 145.337 276.885 145.569 277.28C145.7 277.499 145.757 277.725 145.825 277.963C145.907 278.258 145.844 278.415 145.744 278.71C145.369 279.801 144.943 280.879 144.555 281.971C143.034 286.185 142.527 290.443 143.197 292.939C143.31 293.366 143.429 294.25 144.161 294.419C145.406 294.714 146.357 292.77 146.902 292.005C148.21 290.174 149.342 288.23 150.5 286.311C151.351 284.899 152.046 283.394 152.741 281.895C153.435 280.397 153.836 278.985 154.299 277.455C154.893 275.473 155.45 273.605 156.333 271.447C156.689 270.575 157.071 269.635 157.597 268.738C157.979 268.042 158.454 267.364 159.061 266.769C160.594 265.27 162.666 264.68 164.468 265.226C165.607 265.571 166.602 266.449 167.122 267.571C167.547 268.487 167.616 269.459 167.334 270.343C167.165 275.091 167.541 279.274 168.467 283.175C168.655 283.959 168.88 284.718 169.293 285.012C169.644 285.263 170.307 285.213 170.87 284.893C171.834 284.348 172.56 283.877 173.204 283.219C176.227 280.158 178.718 276.571 180.814 272.827C181.715 271.221 182.541 269.572 183.28 267.891C183.637 267.07 183.975 266.242 184.287 265.408C184.438 265 184.544 264.536 184.738 264.147C184.919 263.783 185.376 263.652 185.777 263.558C186.096 263.482 186.446 263.482 186.747 263.62C187.191 263.827 187.423 264.273 187.61 264.699C187.829 265.182 187.567 265.608 187.391 266.091C187.022 267.114 186.615 268.123 186.177 269.12C185.276 271.177 184.256 273.184 183.13 275.129C180.983 278.835 178.461 282.391 175.439 285.451C174.437 286.467 173.355 287.12 172.41 287.653C170.764 288.587 168.824 288.568 167.466 287.602C166.202 286.706 165.726 285.307 165.394 283.921C164.969 282.14 164.656 280.309 164.443 278.408C163.967 279.744 163.498 281.074 163.016 282.416L161.352 287.094C161.139 287.703 159.969 290.707 158.091 290.707H158.054C155.676 290.657 154.925 286.894 154.893 286.737C154.831 286.411 154.774 286.078 154.724 285.746C153.36 288.863 151.658 291.854 149.974 294.67C148.078 297.844 145.575 299.462 143.072 298.803C141.501 298.389 140.368 297.104 139.667 295.536C139.355 294.833 139.148 294.15 138.891 293.422C138.679 292.808 138.66 292.67 138.503 292.036C138.191 292.563 138.059 292.845 137.959 293.071C137.69 293.661 137.396 294.25 137.12 294.827C136.595 295.918 136 296.658 135.331 297.668C133.998 299.681 132.32 301.512 130.243 302.767C128.309 303.933 125.581 304.617 123.565 303.269C122.483 302.547 121.707 301.406 121.375 300.045C121.081 298.847 120.849 297.637 120.681 296.414C119.98 298.414 119.204 300.39 118.321 302.328C117.583 303.952 116.156 305.689 114.41 305.689C114.21 305.689 114.003 305.664 113.79 305.614C112.295 305.263 111.65 303.482 111.375 302.058C110.367 296.828 110.768 291.403 112.533 286.361C113.64 283.2 115.18 281.218 117.257 280.296C118.866 279.581 120.893 279.763 122.433 280.754C123.709 281.582 124.223 282.899 124.235 284.304M118.772 283.802C118.478 283.802 118.027 284.003 117.814 284.166C117.076 284.711 116.913 285.182 116.112 287.471C114.535 291.986 113.584 295.291 114.485 299.976C114.541 300.271 114.635 300.44 114.923 300.622C115.311 300.622 115.405 300.653 115.618 300.189C118.102 294.733 119.122 291.905 119.861 285.865C119.942 285.207 119.905 284.511 119.842 284.36C119.623 283.852 119.041 283.796 118.772 283.796V283.802ZM160.939 271.422C160.626 271.999 160.357 272.852 160.15 273.435C159.518 275.223 159.143 276.025 158.798 277.894C158.642 278.753 158.316 280.133 158.235 280.999C158.166 281.776 158.135 281.883 158.122 282.109C158.116 282.247 158.129 282.416 158.148 282.472C158.204 282.673 158.304 283.062 158.485 283.175C158.686 283.3 158.992 283.325 159.236 283.112C159.668 282.729 159.818 282.046 160.062 281.362C161.458 277.424 162.547 274.991 163.642 270.776C163.68 270.619 163.748 270.143 163.748 270.143C163.799 269.892 163.811 269.447 163.786 269.352C163.711 269.02 163.404 268.713 163.104 268.788C162.115 269.051 162.078 269.547 161.765 269.867C161.483 270.149 161.151 271.058 160.939 271.416V271.422Z" fill="black"/>
<path d="M145.456 265.251C145.481 265.646 145.544 266.041 145.606 266.43C145.681 266.9 145.782 267.415 146.151 267.716C146.414 267.929 146.764 267.998 147.102 268.004C148.041 268.017 148.973 267.571 149.568 266.85C149.868 266.493 149.837 266.198 149.918 265.765C150.031 265.169 150.162 264.592 150.093 263.984C150.012 263.225 149.605 262.454 148.904 262.153C148.36 261.921 147.715 262.009 147.183 262.278C146.651 262.548 146.232 262.987 145.863 263.457C145.419 264.028 145.406 264.549 145.45 265.245L145.456 265.251Z" fill="black"/>
</g>
<defs>
<clipPath id="clip0_88_132">
<rect width="199" height="307" fill="white"/>
</clipPath>
</defs>
</svg>