<svg width="37" height="43" viewBox="0 0 37 43" fill="none" xmlns="http://www.w3.org/2000/svg">
<g clip-path="url(#clip0_396_624)">
<path d="M0 15.5848V23.9345C3.13426 25.3548 9.95673 31.5248 9.95673 31.5248L4.08133 16.8505C2.99131 17.2407 1.44026 16.6079 0 15.5813V15.5848Z" fill="black"/>
<path d="M2.13001 5.70943C2.3909 5.07661 3.25577 4.4227 3.63817 4.22582C4.02057 4.02894 4.30648 4.25394 4.30648 4.25394C6.08626 3.51214 7.5551 6.77819 7.5551 6.77819L7.72665 6.17349C8.54149 4.76371 9.28127 4.68989 9.63508 4.75317L7.54438 0H0V5.12583C1.14363 4.80239 2.13001 5.70943 2.13001 5.70943Z" fill="black"/>
<path d="M8.71303 35.8246C5.96474 33.8523 5.81464 32.3582 4.20641 29.0886C4.04202 28.7511 3.24505 27.6437 2.97344 27.3835L0 24.4585V43.0001H7.35497C7.35497 43.0001 11.4077 37.7582 8.71303 35.8246Z" fill="black"/>
<path d="M36.3401 0H32.777C29.9072 0 27.4055 1.91603 26.705 4.65121C25.472 9.45712 23.5386 16.7556 22.2627 20.3732C19.9469 26.9475 18.9176 26.6768 13.2066 12.8357L9.71855 4.93247C8.52131 6.14185 8.98591 13.1521 7.76366 14.4986C6.49852 15.8908 5.39062 16.2177 5.39062 16.2177C9.00021 25.2635 16.8841 43.0035 16.8841 43.0035H21.7374C21.7374 43.0035 29.0673 18.0986 28.8672 33.2054L29.0387 43.0035H37.0013L36.3401 0Z" fill="black"/>
</g>
<defs>
<clipPath id="clip0_396_624">
<rect width="37" height="43" fill="white"/>
</clipPath>
</defs>
</svg>
