<svg width="65" height="109" viewBox="0 0 65 109" fill="none" xmlns="http://www.w3.org/2000/svg">
<path d="M19.2912 19V5.90909H27.6776V7.89702H21.6626V11.451H27.1023V13.4389H21.6626V19H19.2912ZM38.0902 5.90909H40.4616V14.4616C40.4616 15.3991 40.2401 16.2237 39.7969 16.9354C39.358 17.647 38.7401 18.2031 37.9432 18.6037C37.1463 19 36.2152 19.1982 35.1499 19.1982C34.0803 19.1982 33.147 19 32.3501 18.6037C31.5533 18.2031 30.9354 17.647 30.4964 16.9354C30.0575 16.2237 29.8381 15.3991 29.8381 14.4616V5.90909H32.2095V14.2635C32.2095 14.8089 32.3288 15.2947 32.5675 15.7209C32.8104 16.147 33.1513 16.4815 33.5902 16.7244C34.0291 16.9631 34.549 17.0824 35.1499 17.0824C35.7507 17.0824 36.2706 16.9631 36.7095 16.7244C37.1527 16.4815 37.4936 16.147 37.7322 15.7209C37.9709 15.2947 38.0902 14.8089 38.0902 14.2635V5.90909ZM53.7971 5.90909V19H51.6877L45.5194 10.0831H45.4107V19H43.0392V5.90909H45.1614L51.3233 14.8324H51.4384V5.90909H53.7971Z" fill="black"/>
<path d="M2.29119 51V37.9091H10.6776V39.897H4.66264V43.451H10.1023V45.4389H4.66264V51H2.29119ZM12.8844 51H10.3532L14.9618 37.9091H17.8894L22.5044 51H19.9732L16.4767 40.5938H16.3745L12.8844 51ZM12.9675 45.8672H19.8709V47.772H12.9675V45.8672ZM34.8187 42.326H32.4281C32.3599 41.9339 32.2342 41.5866 32.051 41.2841C31.8677 40.9773 31.6397 40.7173 31.367 40.5043C31.0943 40.2912 30.7832 40.1314 30.4338 40.0249C30.0886 39.9141 29.7157 39.8587 29.3152 39.8587C28.6035 39.8587 27.9728 40.0376 27.4231 40.3956C26.8734 40.7493 26.443 41.2692 26.1319 41.9553C25.8208 42.6371 25.6653 43.4702 25.6653 44.4545C25.6653 45.456 25.8208 46.2997 26.1319 46.9858C26.4473 47.6676 26.8777 48.1832 27.4231 48.5327C27.9728 48.8778 28.6014 49.0504 29.3088 49.0504C29.7008 49.0504 30.0673 48.9993 30.4082 48.897C30.7534 48.7905 31.0623 48.6349 31.3351 48.4304C31.612 48.2259 31.8443 47.9744 32.0318 47.6761C32.2235 47.3778 32.3556 47.0369 32.4281 46.6534L34.8187 46.6662C34.7292 47.2884 34.5353 47.8722 34.237 48.4176C33.943 48.9631 33.5574 49.4446 33.0801 49.8622C32.6028 50.2756 32.0446 50.5994 31.4054 50.8338C30.7662 51.0639 30.0566 51.179 29.2768 51.179C28.1262 51.179 27.0993 50.9126 26.1958 50.38C25.2924 49.8473 24.5808 49.0781 24.0609 48.0724C23.541 47.0668 23.2811 45.8608 23.2811 44.4545C23.2811 43.044 23.5431 41.8381 24.0673 40.8366C24.5914 39.831 25.3052 39.0618 26.2086 38.5291C27.112 37.9964 28.1348 37.7301 29.2768 37.7301C30.0055 37.7301 30.6831 37.8324 31.3095 38.0369C31.9359 38.2415 32.4941 38.5419 32.9842 38.9382C33.4743 39.3303 33.877 39.8118 34.1923 40.3828C34.5119 40.9496 34.7207 41.5973 34.8187 42.326ZM36.4151 39.897V37.9091H46.8597V39.897H42.8136V51H40.4613V39.897H36.4151ZM55.9876 41.5078C55.9279 40.9496 55.6765 40.5149 55.2333 40.2038C54.7944 39.8928 54.2234 39.7372 53.5202 39.7372C53.0259 39.7372 52.6019 39.8118 52.2482 39.9609C51.8945 40.1101 51.6239 40.3125 51.4364 40.5682C51.2489 40.8239 51.1531 41.1158 51.1488 41.4439C51.1488 41.7166 51.2106 41.9531 51.3342 42.1534C51.462 42.3537 51.6346 42.5241 51.8519 42.6648C52.0692 42.8011 52.31 42.9162 52.5742 43.0099C52.8384 43.1037 53.1048 43.1825 53.3732 43.2464L54.6005 43.5533C55.0948 43.6683 55.57 43.8239 56.0259 44.0199C56.4862 44.2159 56.8974 44.4631 57.2596 44.7614C57.6261 45.0597 57.9158 45.4197 58.1289 45.8416C58.342 46.2635 58.4485 46.7578 58.4485 47.3246C58.4485 48.0916 58.2525 48.767 57.8604 49.3509C57.4684 49.9304 56.9016 50.3842 56.1602 50.7124C55.4229 51.0362 54.5302 51.1982 53.4819 51.1982C52.4634 51.1982 51.5792 51.0405 50.8292 50.7251C50.0835 50.4098 49.4996 49.9496 49.0778 49.3445C48.6602 48.7393 48.4343 48.0021 48.4002 47.1328H50.7333C50.7674 47.5888 50.908 47.968 51.1552 48.2706C51.4023 48.5732 51.7241 48.799 52.1204 48.9482C52.521 49.0973 52.9684 49.1719 53.4627 49.1719C53.9783 49.1719 54.43 49.0952 54.8178 48.9418C55.2099 48.7841 55.5167 48.5668 55.7383 48.2898C55.9599 48.0085 56.0728 47.6804 56.0771 47.3054C56.0728 46.9645 55.9727 46.6832 55.7766 46.4616C55.5806 46.2358 55.3058 46.0483 54.9521 45.8991C54.6026 45.7457 54.1935 45.6094 53.7248 45.4901L52.2354 45.1065C51.1573 44.8295 50.305 44.4098 49.6786 43.8473C49.0565 43.2805 48.7454 42.5284 48.7454 41.5909C48.7454 40.8196 48.9542 40.1442 49.3718 39.5646C49.7937 38.9851 50.3668 38.5355 51.0913 38.2159C51.8157 37.892 52.636 37.7301 53.5522 37.7301C54.4812 37.7301 55.2951 37.892 55.994 38.2159C56.6971 38.5355 57.2489 38.9808 57.6495 39.5518C58.0501 40.1186 58.2567 40.7706 58.2695 41.5078H55.9876Z" fill="black"/>
<g clip-path="url(#clip0_500_1221)">
<path d="M73.0838 58.3945C63.9047 65.5404 45.2535 79.4043 32.4796 84.4959C32.4197 84.5163 32.3496 84.4968 32.3191 84.437C32.0761 84.0088 30.9631 82.2067 28.1904 80.4365C25.0861 78.4487 10.9392 81.73 8.38411 79.6282C8.30361 79.5588 8.14612 79.91 8.12691 80.0201C8.05042 80.5107 7.90051 81.9218 9.82855 83.038C10.6118 83.4924 10.6219 83.5023 11.5227 83.6059C11.5227 83.6059 6.79891 87.2898 8.8422 90.5352C8.8422 90.5352 8.84993 91.6152 9.37486 92.3015C9.86957 92.958 10.9765 93.9201 12.2792 94.3007C12.3594 94.3202 12.4 94.4099 12.3505 94.4802C11.8863 95.2836 9.79582 99.4186 15.5206 101.458C15.5807 101.477 15.6111 101.527 15.6115 101.587C15.5942 101.967 15.3607 102.879 16.7923 103.099C16.7923 103.099 17.0663 105.047 19.2097 104.121C19.2097 104.121 19.6137 106.069 21.7383 105.313C21.7383 105.313 21.6995 105.484 21.6644 106.164C21.6038 107.474 22.1988 108.17 22.47 108.338C23.0827 108.714 23.1682 106.683 24.1495 105.466C26.8359 102.157 35.8774 99.5519 34.0976 87.0044C34.0971 86.9344 34.0866 86.8744 34.1464 86.834L60.9531 70.9117C61.0726 70.8408 61.2135 70.9798 61.1344 71.1004C59.2848 73.9537 49.84 88.6817 49.2167 93.8163C49.1977 93.9564 49.3782 94.0252 49.4674 93.9145L55.4086 85.6718C55.8442 85.0586 57.8005 83.1346 58.4174 82.7002C64.4274 78.487 67.3719 77.7059 70.4288 71.6739C71.5332 69.4959 73.506 67.0817 75.5703 64.8869C75.434 62.6078 74.718 60.3729 73.0739 58.4146L73.0838 58.3945Z" fill="black"/>
</g>
<defs>
<clipPath id="clip0_500_1221">
<rect width="49.62" height="67.61" fill="white" transform="translate(8.28906 108.479) rotate(-90.4102)"/>
</clipPath>
</defs>
</svg>
