<svg width="64" height="64" viewBox="0 0 64 64" fill="none" xmlns="http://www.w3.org/2000/svg">
<mask id="mask0_423_785" style="mask-type:alpha" maskUnits="userSpaceOnUse" x="0" y="0" width="64" height="64">
<rect width="64" height="64" fill="#D9D9D9"/>
</mask>
<g mask="url(#mask0_423_785)">
<path d="M32.001 37.9333C31.7343 37.9333 31.501 37.8888 31.301 37.7999C31.101 37.711 30.9121 37.5777 30.7343 37.3999L18.9343 25.5999C18.801 25.4666 18.7232 25.2999 18.701 25.0999C18.6787 24.8999 18.7565 24.711 18.9343 24.5333C19.1121 24.3555 19.2899 24.2666 19.4676 24.2666C19.6454 24.2666 19.8232 24.3555 20.001 24.5333L32.001 36.5333L44.001 24.5333C44.1343 24.3999 44.301 24.3222 44.501 24.2999C44.701 24.2777 44.8899 24.3555 45.0676 24.5333C45.2454 24.711 45.3343 24.8888 45.3343 25.0666C45.3343 25.2444 45.2454 25.4222 45.0676 25.5999L33.2676 37.3999C33.0899 37.5777 32.901 37.711 32.701 37.7999C32.501 37.8888 32.2676 37.9333 32.001 37.9333Z" fill="#1C1B1F"/>
</g>
</svg>
