<svg width="93" height="112" viewBox="0 0 93 112" fill="none" xmlns="http://www.w3.org/2000/svg">
<g clip-path="url(#clip0_237_176)">
<path d="M26.0428 75.8341C26.3478 75.4228 26.9316 74.666 27.083 74.4866C27.6469 73.8172 28.4632 73.3381 28.8516 72.5156C29.194 72.3975 30.3723 73.8785 30.6203 74.176C30.4755 74.6069 30.9538 74.8672 30.7234 75.2128C30.5918 75.4119 26.8986 77.7766 26.8723 78.0128C32.7159 85.19 38.3467 92.7435 43.3148 100.419C43.4816 98.9647 42.8627 97.5166 43.5233 96.1669C43.8283 98.3347 44.0499 100.463 44.3549 102.598C44.5941 104.269 44.311 106.028 44.5634 107.993C43.69 105.171 43.1392 102.872 40.7123 100.938C37.9956 98.7722 33.3084 98.0481 30.098 96.1669C19.5782 89.9981 16.4336 76.1294 11.8869 65.6688C12.9599 65.6381 12.8941 68.0641 13.344 68.2631C13.5875 68.4403 13.7631 68.0641 13.7609 67.8475C13.7543 67.4822 11.5928 61.7466 11.2637 61.0006C10.7963 59.9419 6.57868 52.126 6.06081 52.08C5.59999 52.0385 6.08934 52.7647 5.64388 52.8063C4.10123 50.2228 2.78021 48.545 1.06421 46.1672C1.38678 45.9572 2.23162 46.4538 2.41595 46.5828C12.001 53.2328 16.5763 64.4175 22.9158 73.4519C23.8967 74.8497 25.1629 76.09 26.1416 77.4966L25.6215 76.3547C25.5688 76.0091 25.8234 76.125 26.0384 75.8363L26.0428 75.8341Z" fill="#69965F"/>
<path d="M88.8965 47.8253C88.9382 48.3722 89.1993 48.1906 88.8965 48.7594C88.451 49.5972 86.6626 51.4019 85.9823 52.4934C82.614 57.9009 79.7064 65.4041 78.0738 71.5816C77.9838 71.9228 77.9794 72.6841 78.4907 71.8922C74.5343 81.13 72.6646 90.4225 62.9852 96.1669C60.0689 97.8972 56.141 98.5425 53.5165 100.109C53.1303 100.058 53.8259 99.5159 53.0996 99.7981C51.7369 100.328 51.4187 100.358 50.1854 101.353C51.1926 98.6409 53.0886 96.2588 54.7651 93.8853C58.3507 88.8059 62.7943 84.2341 65.7962 78.7391C67.5671 76.4247 69.474 74.2547 71.2076 71.8922C75.4669 66.0888 79.1008 59.8566 83.382 54.0488C83.5992 53.7534 82.987 53.8497 83.0704 53.7381C84.7864 51.4194 86.8206 49.7656 88.8987 47.8253H88.8965Z" fill="#69965F"/>
<path d="M35.8232 70.4397L36.6549 72.8262L35.1978 72.5156C34.9213 72.0344 34.8577 71.2994 34.1577 71.4787C34.6382 70.5578 34.1313 69.9606 33.2207 69.1972C32.2134 70.5512 31.7043 70.525 32.7006 72.205C30.9604 71.529 31.046 68.2981 29.0579 67.1212C28.6651 67.7819 25.0576 71.2862 25.0005 71.5816C24.9588 71.7937 26.0582 73.3119 26.2491 73.6553C24.9413 73.3447 25.0444 72.1306 23.9604 73.8631C23.934 74.1584 25.4438 76.1534 26.0406 75.8341C25.8256 76.1228 25.571 76.0069 25.6237 76.3525L26.1438 77.4944C25.1651 76.0856 23.8989 74.8475 22.918 73.4497C16.5763 64.4175 12.0032 53.2328 2.41815 46.5806C2.23162 46.4515 1.38679 45.955 1.06641 46.165C0.561701 45.465 -0.730789 44.8809 0.54634 43.8834C14.9107 46.3334 28.8407 57.96 35.8232 70.4397Z" fill="#A1C66B"/>
<path d="M92.019 43.4678C93.5375 44.7344 90.0441 46.7534 88.8964 47.8253C86.8183 49.7678 84.7842 51.4194 83.0681 53.7381C82.9848 53.8497 83.5992 53.7534 83.3798 54.0487C79.0985 59.8565 75.4646 66.0887 71.2053 71.8922L71.7254 70.4397C70.2617 71.0369 69.9326 69.499 68.8113 71.0631C69.4059 68.6306 66.2658 67.4297 65.2739 70.234C64.9952 69.6565 66.4567 68.2872 66.4194 68.0553C66.3996 67.9372 64.5739 66.7012 64.4423 66.7078C63.672 66.7384 63.6435 68.1625 62.8821 68.0553L64.1307 65.5659C63.2836 66.1609 62.9281 64.9403 61.8419 64.9425L63.5075 62.1425C68.5326 56.1706 83.7791 42.5534 92.0212 43.47L92.019 43.4678Z" fill="#A1C66B"/>
<path d="M35.2 72.5134C37.8223 77.0722 39.6655 83.1862 41.443 88.1781C41.6273 88.6965 41.5571 89.2631 42.2747 89.1122C42.7201 91.4615 43.1897 93.7934 43.5233 96.1668C42.8628 97.5187 43.4816 98.9668 43.3148 100.419C38.3467 92.7412 32.7181 85.19 26.8723 78.0128C26.8986 77.7765 30.5918 75.4097 30.7234 75.2128C30.9517 74.8672 30.4755 74.6047 30.6203 74.1759C31.7724 75.5475 31.9391 77.8793 33.4291 75.005L34.6777 76.6653C34.9981 76.5034 33.1197 73.034 33.1175 72.8262C33.1109 72.1481 33.9843 71.8112 34.1577 71.4787C34.8599 71.3015 34.9213 72.0343 35.1978 72.5156L35.2 72.5134Z" fill="#366D50"/>
<path d="M78.4907 71.8921C77.9794 72.684 77.9837 71.9206 78.0737 71.5815C79.7063 65.404 82.6139 57.9009 85.9823 52.4934C86.6625 51.4018 88.4509 49.5971 88.8964 48.7593C89.1992 48.1906 88.9381 48.3743 88.8964 47.8253C90.0441 46.7534 93.5375 44.7343 92.019 43.4678C94.7729 43.774 90.9416 46.9393 90.145 48.1359C85.2779 55.464 81.8283 64.0981 78.4907 71.8921Z" fill="#A1C66B"/>
<path d="M42.2768 89.1122C41.5571 89.2631 41.6295 88.6988 41.4452 88.1781C39.6677 83.1863 37.8244 77.0744 35.2021 72.5134L36.6592 72.8241L35.8275 70.4375C39.2793 76.6084 40.9668 82.1844 42.279 89.11L42.2768 89.1122Z" fill="#69965F"/>
<path d="M11.8891 65.6665C9.94052 61.1821 8.17404 57.0368 5.64612 52.804C6.09158 52.7625 5.60223 52.0362 6.06305 52.0778C6.58092 52.1237 10.7985 59.9396 11.2659 60.9984C11.5951 61.7443 13.7587 67.48 13.7631 67.8453C13.7675 68.0618 13.5898 68.4381 13.3462 68.2609C12.8963 68.0618 12.9622 65.6381 11.8891 65.6665Z" fill="#A1C66B"/>
<path d="M53.5142 100.109C50.3719 101.986 49.8343 104.77 48.9346 107.992C48.985 107.183 49.0948 103.954 49.143 103.74C49.1716 103.613 49.9791 101.902 50.1832 101.353C51.4164 100.356 51.7346 100.327 53.0973 99.7981C53.8215 99.5159 53.1258 100.058 53.5142 100.109Z" fill="#366D50"/>
<path d="M34.1599 71.4765C33.9865 71.809 33.1132 72.1459 33.1198 72.824C33.1198 73.0318 35.0025 76.499 34.68 76.6631L33.4314 75.0028C31.9392 77.875 31.7724 75.5453 30.6226 74.1737C30.3746 73.8784 29.194 72.3953 28.8539 72.5134C28.4633 73.3359 27.6492 73.815 27.0852 74.4843C26.9338 74.6637 26.3501 75.4228 26.0451 75.8318C25.4482 76.1512 23.9385 74.1562 23.9648 73.8609C25.0488 72.1284 24.9479 73.3446 26.2536 73.6531C26.0626 73.3096 24.9633 71.7893 25.005 71.5793C25.0642 71.284 28.6718 67.7796 29.0624 67.119C31.0505 68.2959 30.9649 71.5268 32.705 72.2028C31.7088 70.5228 32.2179 70.549 33.2251 69.195C34.1336 69.9584 34.6405 70.5556 34.1621 71.4765H34.1599Z" fill="#7EA864"/>
<path d="M71.2054 71.8921C69.4718 74.2546 67.5649 76.4246 65.794 78.739C61.9034 83.8228 57.8065 88.5959 54.1397 93.8853C53.5187 94.78 50.4422 100.198 50.0823 100.317C49.1826 100.612 49.8519 98.1225 49.3538 97.8271C50.9096 83.9278 54.4689 72.8831 63.5053 62.1425L61.8398 64.9425C62.926 64.9403 63.2815 66.1587 64.1285 65.5659L62.8799 68.0553C63.6436 68.1603 63.6699 66.7362 64.4401 66.7078C64.5718 66.7034 66.3975 67.9393 66.4173 68.0553C66.4568 68.2871 64.9931 69.6565 65.2718 70.234C66.2658 67.4296 69.406 68.6328 68.8091 71.0631C69.9305 69.499 70.2574 71.039 71.7233 70.4396L71.2032 71.8921H71.2054Z" fill="#69965F"/>
<path d="M54.7628 93.8831H54.1375C57.8043 88.5937 61.9012 83.8206 65.7918 78.7368C62.7921 84.2318 58.3463 88.8037 54.7607 93.8831H54.7628Z" fill="#7EA864"/>
<path d="M60.7997 66.7034C60.9357 66.4671 60.9182 65.8721 61.3197 65.6665C61.6599 66.1149 60.8897 66.559 60.7997 66.7034Z" fill="#A1C66B"/>
<path d="M60.7996 66.7034C60.6636 66.9396 60.6811 67.5346 60.2795 67.7402C59.9394 67.2918 60.7096 66.8477 60.7996 66.7034Z" fill="#A1C66B"/>
<path d="M44.3571 89.32C44.3022 81.8562 44.3461 74.3772 44.3571 66.9134L45.1888 63.0743C45.101 61.5978 44.6248 51.334 44.9803 50.8331C45.2041 50.5181 46.896 50.855 47.0606 51.2487C47.4665 58.2706 47.6508 65.3712 47.686 72.4106C47.6991 74.9678 47.9954 89.9893 47.269 91.0831C47.0364 91.4353 44.9342 91.724 44.7718 91.4987L44.3549 89.32H44.3571Z" fill="#A1C66B"/>
<path d="M27.7062 4.46243C26.9842 4.87149 27.3858 4.71618 27.7062 4.98086C29.2817 6.2868 30.5896 7.84211 32.0774 9.23336V9.44118C30.7015 10.9746 28.4216 13.4881 28.1231 15.459L26.9777 15.2512C26.8745 15.8768 26.1833 17.8084 26.4576 18.259C26.5871 18.4712 27.3463 18.2109 27.4977 18.6746C27.5482 18.8299 26.9294 21.3937 26.9777 21.8902C25.5184 21.2952 26.1372 19.3352 25.9375 19.193C24.4629 18.1496 24.6121 20.6105 24.4804 20.6455C24.3795 20.6718 24.1052 19.5059 22.7118 20.0221C22.6218 17.6115 22.5253 14.4024 22.7118 12.0334C22.8325 10.5131 23.8419 2.93774 25.5206 2.79993C26.677 2.96399 27.0413 3.96149 27.7062 4.46024V4.46243Z" fill="#FF93B0"/>
<path d="M49.3516 97.8249C49.8497 98.1202 49.1804 100.61 50.0801 100.314C50.4422 100.196 53.5187 94.7777 54.1375 93.883H54.7629C53.0864 96.2565 51.1905 98.6387 50.1833 101.351C49.9792 101.9 49.1716 103.611 49.1431 103.738C49.0948 103.952 48.9851 107.183 48.9347 107.99C48.871 109.021 49.1497 110.079 49.1431 110.895C49.1431 111.138 49.2309 111.799 49.04 111.932C47.5785 111.678 45.6299 112.636 44.9826 111.103C44.8685 110.834 44.8465 109.454 44.7741 109.029C44.7149 108.686 44.5986 108.242 44.5656 107.992C44.3133 106.028 44.5964 104.269 44.3572 102.598C44.829 99.9227 44.3989 97.184 44.3572 94.5065L45.0857 97.6193C45.1691 96.4555 46.0863 97.359 46.7512 96.9959C48.9039 95.8255 47.3174 91.0262 48.103 88.9043C48.1908 93.4237 48.4694 97.9671 48.5199 102.493C49.6237 101.574 49.2046 99.1549 49.3516 97.8249Z" fill="#6F9544"/>
<path d="M59.1341 1.76526C59.1428 1.80682 59.0616 2.58557 58.9256 2.59432C56.9419 -0.654113 54.4688 1.7412 52.2656 3.42339C50.0822 5.09026 48.544 6.99339 46.7512 9.02557C45.0044 7.8137 43.4377 6.38307 41.7568 5.0837C41.2586 4.6987 40.4906 3.48682 40.405 3.42339C41.0633 2.67526 42.4941 0.99745 43.4223 0.7262C44.6555 0.365262 45.2371 0.835575 46.3364 0.7262C46.4286 0.71745 47.2822 0.1137 47.3766 0.102762C49.6938 -0.135675 51.6863 2.13932 52.371 2.17651C53.1983 2.22245 58.2278 -2.4588 59.1341 1.76089V1.76526Z" fill="#EB2A4F"/>
<path d="M48.7284 46.9941C48.171 47.7094 47.9669 50.8222 47.8967 51.87C47.1177 63.3719 47.8769 77.2078 48.1052 88.9044C47.3174 91.0263 48.9061 95.8256 46.7534 96.9959C46.0885 97.3569 45.1735 96.4556 45.0879 97.6194L44.3593 94.5066C44.333 92.7806 44.3725 91.0459 44.3593 89.32L44.7763 91.4987C44.9387 91.7241 47.0409 91.4353 47.2735 91.0831C47.9998 89.9894 47.7014 74.9678 47.6904 72.4106C47.6553 65.3691 47.471 58.2706 47.065 51.2488C46.8982 50.855 45.2064 50.5181 44.9847 50.8331C44.6293 51.3319 45.1054 61.5978 45.1932 63.0744L44.3615 66.9134C44.3659 64.0391 45.1054 48.6566 44.1531 47.4119C44.7543 45.7931 47.4819 46.8934 48.7327 46.9963L48.7284 46.9941Z" fill="#81A540"/>
<path d="M52.8911 46.1649C52.2174 46.3421 51.1948 46.1124 50.1854 46.3727C48.7064 44.9202 45.5509 44.7955 43.4223 44.9202C43.3126 44.9268 43.5233 45.2396 42.7969 45.3359C42.7223 45.3446 42.4765 44.8787 42.2769 44.9202C42.7267 42.7984 43.9029 44.7146 44.9825 43.9862C44.8114 43.1965 44.7104 42.3937 44.5656 41.5996C46.3189 44.3865 50.7121 43.6602 52.6826 45.2309C52.7199 45.2615 52.4873 46.1015 52.8911 46.1649Z" fill="#C5826C"/>
<path d="M42.2768 44.9202C42.4765 44.8787 42.7223 45.3446 42.7969 45.3358C43.5232 45.2396 43.3104 44.9268 43.4223 44.9202C45.553 44.7955 48.7064 44.9202 50.1854 46.3727C49.6916 46.4996 49.0948 46.5258 48.7283 46.9962C47.4775 46.8933 44.7499 45.793 44.1486 47.4118C43.1414 46.5609 41.7107 46.5827 40.4028 46.1671C41.1094 45.6158 41.3289 45.1171 42.2768 44.9224V44.9202Z" fill="#EBDD64"/>
<path d="M66.0025 2.80215L64.5455 1.03903C65.647 3.11497 65.5088 5.09028 65.0655 7.36747L61.4229 1.34965C63.5382 0.710904 65.3881 -1.06316 66.0025 2.80215Z" fill="#EB2A4F"/>
<path d="M37.2803 1.97311C35.7837 3.45186 34.4408 1.9228 32.9091 3.2178C31.8295 4.12998 31.847 5.78811 30.8288 6.74405C30.7103 6.64342 30.6335 6.54717 30.6204 6.53623C31.068 5.03998 31.4125 2.69936 32.806 1.7653C33.0693 1.58811 35.4326 0.82686 35.9286 0.936235C36.3872 1.03686 36.8348 1.77842 37.2803 1.97311Z" fill="#FA608F"/>
<path d="M30.6203 6.53615C30.6335 6.54709 30.7103 6.64334 30.8288 6.74396C32.8279 8.44803 35.7706 10.664 36.2401 13.383C35.8013 12.6283 34.4473 10.5896 33.8461 10.0624C33.2448 9.53521 32.1476 9.29896 32.0774 9.23334C30.5896 7.8399 29.284 6.28678 27.7062 4.98084C27.3858 4.71615 26.9843 4.86928 27.7062 4.4624C28.5818 5.11865 29.894 5.93678 30.6203 6.53615Z" fill="#FDA8B5"/>
<path d="M58.9256 2.59436C59.11 2.89404 59.0858 3.31623 59.551 3.21779C59.5181 3.37092 59.5291 3.67279 59.551 3.84123L59.1341 4.15186C57.8636 2.25529 55.5726 2.23123 53.5143 2.90717C53.3431 3.30529 55.814 5.43811 56.22 6.01998C56.4987 6.41811 58.2695 9.54404 58.3002 9.75404C58.3814 10.2834 56.8498 10.3184 56.8432 11.2065C56.8432 11.2984 57.7429 12.39 57.6748 12.8669C57.6529 13.0156 56.0642 14.8706 56.1146 15.4612C55.441 14.5228 54.2297 10.9615 52.992 11.1037C50.8372 12.0203 54.0826 14.5097 54.7607 15.9797C56.5711 19.8953 54.5917 18.4756 53.7206 19.7137C53.3563 20.23 53.7535 20.9059 53.7206 20.9584C53.3914 21.4965 52.5576 22.0872 52.2635 22.6187C52.0967 22.9206 52.5444 23.2378 52.472 23.4478C52.2525 24.08 51.2431 23.6097 51.2234 24.2769C51.2036 24.944 51.7325 24.9397 51.6403 25.5215C51.5854 25.8694 49.5118 26.9872 50.8086 27.8031C50.3939 28.024 47.5653 30.3012 47.4776 30.5003C47.2888 30.9378 47.9142 31.2878 47.8945 31.3294C47.2362 32.6922 45.0989 34.0462 43.6286 34.3372C43.5299 34.3569 42.9725 33.2194 42.2769 34.7528C41.77 33.134 41.1951 31.7165 41.1314 29.9819C40.3173 32.6069 39.4681 35.1597 39.5712 37.9706L39.3627 37.0365C39.2991 36.1025 39.3386 35.1487 39.5712 34.2365C38.3314 32.6353 35.358 34.4312 35.3053 31.4365C34.4583 31.6815 34.9872 34.0309 33.4313 33.3047C33.247 33.2194 32.6896 31.2703 32.4943 31.1259C32.1476 30.87 31.6758 31.7603 30.6203 30.089C30.526 29.9403 30.7147 29.1965 30.6203 29.0522C30.1485 28.3215 29.6548 30.1612 29.1633 28.1181C28.6717 26.075 29.4793 22.2053 30.2034 20.1294C27.3507 20.604 29.2664 18.0753 28.9548 17.64C28.5554 17.08 27.6513 18.5609 28.1231 15.4612C28.4216 13.4903 30.7015 10.9769 32.0774 9.44342C34.7831 11.539 34.6273 16.205 35.8232 18.469C36.1611 19.11 37.9079 19.9303 38.5289 20.7506C38.7 20.9759 40.9449 24.6684 41.0261 24.9003C41.3552 25.8409 41.3223 27.4094 41.2346 28.4265C41.8029 28.5622 42.0662 26.2784 42.0662 26.145C42.0662 25.8475 41.5462 24.7165 41.4408 24.3819C42.1628 24.7056 41.5308 23.0037 41.6493 22.6187C41.8029 22.1244 42.7333 21.1465 42.8979 20.545C43.0976 19.8078 42.2944 16.754 43.938 17.3294C44.3791 17.8084 48.4738 19.5956 49.661 20.65C50.1064 21.0459 49.977 21.9625 50.598 21.9975C51.4999 20.7484 50.3456 20.3503 50.3895 19.9237C50.4202 19.6372 51.4143 19.1581 51.4296 19.0947C51.513 18.7381 50.903 18.5937 51.0127 18.2656C51.219 17.6531 51.84 17.6947 51.8444 17.6422C51.8883 17.2856 51.4143 17.0953 51.4274 17.0187C51.5262 16.4587 52.0507 15.8484 52.0528 15.774C52.0726 14.8706 48.25 12.285 47.0584 12.3506C47.3371 11.935 48.8842 9.71029 48.9324 9.55061C49.1343 8.87029 48.7876 7.48342 48.9324 7.06123C49.3318 5.89967 51.9014 4.77967 52.2635 3.42998C54.4667 1.74561 56.9397 -0.647518 58.9234 2.60092L58.9256 2.59436Z" fill="#FF93B0"/>
<path d="M66.0025 2.8022C66.2505 4.36188 65.8511 6.38751 66.1056 7.98876L68.0828 2.90501C68.3022 2.69282 68.6928 3.47376 68.7082 3.52845C70.6612 10.9156 70.0511 30.9378 66.0025 37.555C63.9178 40.9631 56.7378 45.1522 52.8911 46.165C52.4873 46.1016 52.7199 45.2616 52.6826 45.2309C50.7121 43.6603 46.3189 44.3866 44.5656 41.5997C44.1399 39.2678 42.9834 37.0125 42.2769 34.7528C42.9725 33.2194 43.532 34.3569 43.6286 34.3372C45.0988 34.0441 47.2362 32.6922 47.8945 31.3294C47.9142 31.2878 47.2888 30.9378 47.4775 30.5003C47.5631 30.3013 50.3917 28.0241 50.8086 27.8031C49.5117 26.985 51.5854 25.8672 51.6403 25.5216C51.7324 24.9397 51.2036 24.9397 51.2233 24.2769C51.2431 23.6141 52.2525 24.0778 52.4719 23.4478C52.5444 23.2378 52.0967 22.9206 52.2635 22.6188C52.5575 22.0872 53.3914 21.4966 53.7205 20.9584C53.7535 20.9059 53.3563 20.23 53.7205 19.7138C54.5917 18.4756 56.571 19.8931 54.7607 15.9797C54.0804 14.5097 50.8349 12.0203 52.992 11.1038C54.2296 10.9616 55.4409 14.5228 56.1146 15.4613C56.0663 14.8728 57.6551 13.0178 57.6748 12.8669C57.7406 12.39 56.841 11.3006 56.8431 11.2066C56.8497 10.3184 58.3814 10.2834 58.3002 9.75407C58.2673 9.54188 56.4964 6.41814 56.2199 6.02001C55.814 5.43813 53.3431 3.30751 53.5143 2.9072C55.5704 2.23126 57.8635 2.25532 59.1341 4.15188L59.551 3.84126C59.7353 5.19751 61.4382 8.27314 61.8397 10.1697C62.3269 12.4731 62.5398 15.0194 62.1514 17.3272C62.4717 17.4059 64.5147 11.6091 64.1285 11.2066C64.9207 11.3838 65.3881 9.78688 64.9602 9.13282C65.4012 9.59001 65.8599 9.0847 65.7918 8.92501C64.225 7.93626 63.7927 3.85001 61.9407 2.80438C61.0849 2.32095 59.8121 1.95782 59.5466 3.22001C59.0814 3.32063 59.1056 2.89845 58.9212 2.59657C59.0573 2.58563 59.1385 1.80907 59.1297 1.76751C59.9087 1.25126 60.7557 1.55313 61.4184 1.35188L65.0611 7.3697C65.5044 5.09251 65.6426 3.1172 64.541 1.04126L65.9981 2.80438L66.0025 2.8022Z" fill="#FF5E8D"/>
<path d="M60.6943 17.9484C60.8874 18.0622 60.9225 20.1294 61.9429 17.9484C60.7162 23.7388 60.4046 29.995 58.3002 35.6869C60.1303 36.1637 61.6598 37.6316 62.983 35.7897C63.2397 35.9166 62.0526 38.1237 62.7745 38.2791C62.9786 38.3228 63.0817 37.1 63.1915 37.0344C63.3648 36.9294 64.2645 37.1394 64.4401 37.0344C64.6463 36.9119 65.7216 35.4331 66.2087 36.1003C66.3426 38.7778 55.0832 45.4912 54.0343 45.3337C53.9378 45.3184 53.0863 44.3931 52.4741 44.3997C52.1691 43.2009 53.308 43.6166 53.2026 42.6366C51.5415 43.7566 49.5775 42.6541 47.7913 43.0522C46.8894 39.0819 52.9086 38.6553 52.5773 34.9606L50.497 37.6578C49.6039 36.0587 52.5553 35.0328 52.891 34.65C52.9657 34.5647 52.8164 34.1141 52.891 34.0266C53.2465 33.6131 53.7074 33.7794 54.1396 33.1975C54.3349 32.935 53.9136 32.6025 53.9312 32.5741C54.3942 31.8894 55.4826 31.5591 55.1798 30.5003L55.4914 31.4344C55.792 30.9816 56.8892 29.6144 57.0516 29.2556C57.7362 27.755 58.4604 24.9244 59.1319 23.0322C59.2328 22.75 59.0265 22.0369 59.1319 21.7875C59.3776 21.2034 59.8933 21.7416 59.9635 21.5797C60.0447 21.3959 59.7309 17.3775 60.6921 17.9484H60.6943Z" fill="#D73059"/>
<path d="M59.551 3.83896C59.5291 3.67052 59.5181 3.36865 59.551 3.21552C59.8166 1.95552 61.0893 2.31646 61.9451 2.7999C63.7972 3.84552 64.2295 7.92959 65.7962 8.92052C65.8621 9.08021 65.4056 9.58552 64.9646 9.12834C65.3925 9.7824 64.9251 11.3815 64.1329 11.2021C64.5191 11.6046 62.4762 17.3993 62.1558 17.3227C62.5442 15.0149 62.3313 12.4686 61.8442 10.1652C61.4426 8.26865 59.7398 5.19302 59.5554 3.83677L59.551 3.83896Z" fill="#EB2A4F"/>
<path d="M29.1633 28.1137C29.6526 30.1568 30.1485 28.3171 30.6203 29.0477C30.7147 29.1943 30.526 29.9359 30.6203 30.0846C31.6758 31.7581 32.1454 30.8656 32.4943 31.1215C32.6896 31.2659 33.247 33.2127 33.4313 33.3002C34.9872 34.0265 34.4561 31.6793 35.3053 31.4321C35.3602 34.429 38.3314 32.6309 39.5712 34.2321C39.3386 35.1465 39.2991 36.0981 39.3627 37.0321C39.3671 37.0999 39.1301 37.8612 39.1543 38.3796C39.2069 39.4734 41.206 41.8424 38.4257 42.0109C38.237 42.0218 38.0703 41.3874 38.0088 41.3874C37.7674 41.3874 36.8348 42.2165 36.7602 42.2165C36.6066 42.2165 34.8643 41.0331 34.0545 41.8009C34.8774 40.2937 35.9176 38.0952 37.4887 40.0377C36.1392 38.4015 37.5041 38.4846 37.4887 38.3774C37.4778 38.3053 36.6922 38.3424 36.2401 37.754C35.9944 37.4346 35.7969 36.2249 35.7201 36.1987C35.5906 36.1527 35.6521 36.6253 35.5116 36.6143C32.3715 36.3715 34.2696 34.3984 33.1175 33.6065C32.5119 33.1887 31.6298 33.7399 31.5573 33.7093C31.2962 33.6021 31.3225 31.9702 30.9319 31.6356C30.8376 31.5546 30.1858 31.7165 30.1003 31.6356C29.8611 31.4146 29.3366 30.4193 29.2686 30.3909C29.1435 30.3362 27.7216 31.1871 27.3946 31.0143C27.3156 30.9727 26.2864 29.7456 26.2491 29.6668C26.0187 29.1527 26.6792 29.0915 26.6661 29.0434C26.5234 28.5556 25.5864 27.7287 26.146 26.8646C27.388 26.9609 27.8203 29.1462 29.1633 28.1093V28.1137Z" fill="#DF6885"/>
<path d="M28.1231 15.459C27.6535 18.5587 28.5554 17.0778 28.9548 17.6378C29.2664 18.0731 27.3507 20.604 30.2034 20.1272C29.4793 22.2009 28.6564 26.0028 29.1633 28.1159C27.8203 29.1528 27.388 26.9675 26.146 26.8712C25.5886 27.7353 26.5234 28.5622 26.6661 29.05C26.6792 29.0959 26.0187 29.1572 26.2491 29.6734C26.2842 29.7544 27.3156 30.9815 27.3946 31.0209C27.7216 31.1937 29.1413 30.345 29.2686 30.3975C29.3366 30.4259 29.8633 31.4212 30.1003 31.6422C30.1858 31.7231 30.8398 31.5612 30.9319 31.6422C31.3203 31.9769 31.2962 33.6109 31.5573 33.7159C31.6298 33.7465 32.5119 33.1953 33.1175 33.6131C34.2696 34.4072 32.3715 36.3803 35.5116 36.6209C35.6499 36.6319 35.5906 36.1594 35.7201 36.2053C35.7969 36.2337 35.9966 37.4412 36.2401 37.7606C36.6922 38.349 37.4778 38.3119 37.4887 38.384C37.5041 38.489 36.1392 38.4081 37.4887 40.0444C35.9176 38.1019 34.8774 40.3003 34.0545 41.8075C34.8643 41.0397 36.6066 42.2209 36.7602 42.2231C36.8348 42.2231 37.7674 41.394 38.0088 41.394C38.0703 41.394 38.237 42.0284 38.4257 42.0175C41.206 41.849 39.2069 39.48 39.1543 38.3862C39.1279 37.8678 39.3671 37.1065 39.3627 37.0387L39.5712 37.9728C39.4681 35.164 40.3173 32.609 41.1314 29.984C41.1951 31.7209 41.77 33.1384 42.2769 34.755C42.9857 37.0147 44.1421 39.27 44.5656 41.6019C44.7104 42.3937 44.8092 43.1987 44.9826 43.9884C43.9029 44.7169 42.7267 42.7984 42.2769 44.9225C41.3311 45.1172 41.1095 45.6159 40.4029 46.1672C26.4861 41.7353 23.2472 34.265 22.7118 20.0244C24.1074 19.5059 24.3795 20.674 24.4805 20.6478C24.6121 20.6128 24.4629 18.1519 25.9375 19.1953C26.1372 19.3375 25.5206 21.2975 26.9777 21.8925C26.9294 21.3959 27.5482 18.8322 27.4977 18.6769C27.3463 18.2131 26.5849 18.4734 26.4576 18.2612C26.1833 17.8106 26.8745 15.879 26.9777 15.2534L28.1231 15.4612V15.459Z" fill="#CF496A"/>
<path d="M40.923 32.4712L42.3801 36.9315L43.8371 41.3918C42.2923 40.9609 42.9835 38.5415 41.0283 39.2131C42.2221 36.2971 40.7189 37.3843 40.5083 37.2421C39.523 36.5771 40.5653 32.4756 40.9252 32.4712H40.923Z" fill="#A71E3F"/>
<path d="M36.2401 13.3831C36.4332 13.7134 36.3915 13.6959 36.4486 13.7987C37.8091 16.2968 40.6399 21.8203 41.443 24.3796C41.5483 24.7143 42.0684 25.8453 42.0684 26.1428C42.0684 26.2762 41.8029 28.56 41.2367 28.4243C41.3245 27.4071 41.3574 25.8387 41.0283 24.8981C40.9471 24.6662 38.7 20.9737 38.5311 20.7484C37.9101 19.9281 36.1633 19.1056 35.8254 18.4668C34.6295 16.205 34.7853 11.5368 32.0796 9.44121V9.2334C32.1498 9.30121 33.2602 9.5484 33.8483 10.0625C34.4364 10.5765 35.8035 12.6262 36.2423 13.3831H36.2401Z" fill="#FFC2CB"/>
<path d="M40.8197 5.49935C41.9433 7.10935 42.9988 9.52435 44.1508 11.2044C44.5502 11.7556 44.5304 11.2853 44.9825 11.1015C43.0975 14.1422 40.4072 16.6447 39.8827 20.0222L36.4485 13.7987C36.3915 13.6959 36.4332 13.7156 36.2401 13.3831C35.7705 10.664 32.8278 8.4481 30.8287 6.74404C31.8491 5.7881 31.8316 4.12998 32.909 3.21779C35.663 2.72998 34.7742 5.3681 35.0946 7.15966C35.1078 2.24216 38.1185 1.62966 40.8175 5.49935H40.8197Z" fill="#FE658E"/>
<path d="M43.9402 17.3249C43.9117 17.2943 43.6594 16.7365 43.5233 16.5987C43.5475 16.323 46.6481 12.9608 47.0607 12.3462C48.2522 12.2783 52.077 14.864 52.0551 15.7696C52.0551 15.844 51.5284 16.4543 51.4297 17.0143C51.4165 17.0887 51.8883 17.2812 51.8466 17.6377C51.84 17.6902 51.2212 17.6465 51.0149 18.2612C50.903 18.5915 51.5131 18.7358 51.4319 19.0902C51.4165 19.1558 50.4203 19.6327 50.3917 19.9193C50.3478 20.348 51.5021 20.7462 50.6002 21.993C49.9792 21.958 50.1108 21.0415 49.6632 20.6455C48.476 19.5912 44.3813 17.804 43.9402 17.3249Z" fill="#FEA7B6"/>
<path d="M44.9826 11.1015C44.5305 11.2852 44.5503 11.7555 44.1509 11.2043C43.001 9.52208 41.9455 7.10927 40.8198 5.49927L46.2312 9.95958C46.2443 10.1236 45.2174 11.0052 44.9826 11.1015Z" fill="#FDA8B5"/>
<path d="M40.4029 3.42563C40.4884 3.48907 41.2587 4.70095 41.7546 5.08595C43.4355 6.38532 45.0023 7.81595 46.749 9.02782C48.5418 6.99564 50.0801 5.0947 52.2635 3.42563C51.9036 4.77532 49.334 5.89532 48.9324 7.05688C48.7876 7.47907 49.1343 8.86595 48.9324 9.54626C48.8841 9.70813 47.3371 11.9328 47.0584 12.3463C46.6437 12.9609 43.5452 16.3253 43.5211 16.5988C43.6571 16.7366 43.9095 17.2944 43.938 17.325C42.2944 16.7497 43.0976 19.8034 42.8979 20.5406C42.7333 21.1444 41.8007 22.12 41.6493 22.6144C41.5308 22.9994 42.1628 24.7013 41.4408 24.3775C40.6355 21.8181 37.8069 16.2947 36.4464 13.7966L39.8806 20.02C40.4029 16.6425 43.0932 14.14 44.9803 11.0994C45.2173 11.0031 46.2421 10.1216 46.2289 9.95751L40.8176 5.4972C38.1163 1.62751 35.1078 2.23782 35.0947 7.15751C34.7743 5.36595 35.663 2.72782 32.9091 3.21563C34.4407 1.92063 35.7837 3.4497 37.2803 1.97095C38.248 2.39313 39.5756 2.82188 40.4029 3.42345V3.42563Z" fill="#FFC2CB"/>
<path d="M40.0913 20.23L40.4029 20.3328L40.2998 20.6456L40.1944 20.5406L40.0913 20.23Z" fill="#FEB8D0"/>
</g>
<defs>
<clipPath id="clip0_237_176">
<rect width="93" height="112" fill="white"/>
</clipPath>
</defs>
</svg>
