<svg width="129" height="129" viewBox="0 0 129 129" fill="none" xmlns="http://www.w3.org/2000/svg">
<path d="M67.5234 67.6719L75.7381 76.2151" stroke="#CC0404" stroke-width="4" stroke-linecap="round"/>
<path d="M104.978 83.9222L106.329 84.5739L106.358 84.5156L106.381 84.455L104.978 83.9222ZM84.3869 104.724L83.7213 103.38L83.7213 103.38L84.3869 104.724ZM55.3016 108.52L55.0047 109.991L55.0047 109.991L55.3016 108.52ZM29.8855 93.7223L31.0173 92.7379L29.8855 93.7223ZM18.7676 66.5189L20.2649 66.43L20.2649 66.43L18.7676 66.5189ZM50.0998 20.8308L50.555 22.2601L50.0998 20.8308ZM79.4472 21.4525L78.9333 22.8617L78.9333 22.8617L79.4472 21.4525ZM102.366 39.8911L99.0901 22.8833L85.9991 34.2246L102.366 39.8911ZM110.754 61.0807C110.743 60.2523 110.063 59.5896 109.234 59.6005C108.406 59.6114 107.743 60.2918 107.754 61.1201L110.754 61.0807ZM103.627 83.2704C99.4147 92.0031 92.4132 99.0763 83.7213 103.38L85.0525 106.069C94.3425 101.469 101.826 93.9081 106.329 84.5739L103.627 83.2704ZM83.7213 103.38C75.0293 107.684 65.1377 108.976 55.5984 107.05L55.0047 109.991C65.1937 112.047 75.7626 110.669 85.0525 106.069L83.7213 103.38ZM55.5984 107.05C46.059 105.124 37.4127 100.09 31.0173 92.7379L28.7538 94.7067C35.5829 102.558 44.8159 107.934 55.0047 109.991L55.5984 107.05ZM31.0173 92.7379C24.6219 85.3854 20.8404 76.1318 20.2649 66.43L17.2702 66.6077C17.885 76.9726 21.9247 86.8556 28.7538 94.7067L31.0173 92.7379ZM20.2649 66.43C19.6894 56.7285 22.3523 47.128 27.8341 39.1345L25.36 37.4378C19.5003 45.9823 16.6553 56.2426 17.2702 66.6077L20.2649 66.43ZM27.8341 39.1345C33.3159 31.1411 41.3073 25.2056 50.555 22.2601L49.6445 19.4016C39.7617 22.5494 31.2197 28.8932 25.36 37.4378L27.8341 39.1345ZM50.555 22.2601C59.8029 19.3144 69.7845 19.5253 78.9333 22.8617L79.9611 20.0432C70.1905 16.4801 59.5272 16.2537 49.6445 19.4016L50.555 22.2601ZM78.9333 22.8617C83.945 24.6893 88.5511 27.3981 92.5504 30.8263L94.5028 28.5486C90.2323 24.8879 85.3135 21.9951 79.9611 20.0432L78.9333 22.8617ZM106.381 84.455C109.951 75.0611 110.869 69.8087 110.754 61.0807L107.754 61.1201C107.864 69.4398 107.024 74.3181 103.576 83.3893L106.381 84.455Z" fill="#494A4A"/>
<circle cx="64.4676" cy="64.3878" r="3" stroke="#CC0404" stroke-width="3.8576"/>
<path d="M64.2375 41.7129V60.1137" stroke="#CC0404" stroke-width="4" stroke-linecap="round"/>
<path d="M47.1511 35.1426L49.4588 38.8988" stroke="#494A4A" stroke-width="3" stroke-linecap="round"/>
<path d="M34.6648 46.9707L38.4462 49.2369" stroke="#494A4A" stroke-width="3" stroke-linecap="round"/>
<path d="M89.8672 49.8945L93.6487 47.6286" stroke="#494A4A" stroke-width="3" stroke-linecap="round"/>
<path d="M79.3525 38.8984L81.6605 35.1424" stroke="#494A4A" stroke-width="3" stroke-linecap="round"/>
<path d="M78.6953 90.3438L81.1327 94.0171" stroke="#494A4A" stroke-width="3" stroke-linecap="round"/>
<path d="M47.1511 94.0176L49.5888 90.3444" stroke="#494A4A" stroke-width="3" stroke-linecap="round"/>
<path d="M30.0645 64.0566H34.4729" stroke="#494A4A" stroke-width="3" stroke-linecap="round"/>
<path d="M93.8103 64.0566H98.2188" stroke="#494A4A" stroke-width="3" stroke-linecap="round"/>
<path d="M89.8672 79.1719L93.6283 81.4716" stroke="#494A4A" stroke-width="3" stroke-linecap="round"/>
<path d="M34.6648 81.4727L38.426 79.1732" stroke="#494A4A" stroke-width="3" stroke-linecap="round"/>
<path d="M64.2375 98.6973V94.2888" stroke="#494A4A" stroke-width="3" stroke-linecap="round"/>
<path d="M64.2375 34.9512V30.5427" stroke="#494A4A" stroke-width="3" stroke-linecap="round"/>
</svg>
